<?xml version="1.0" encoding="UTF-8" standalone="no"?>
<svg
   version="1.1"
   id="Layer_1"
   x="0px"
   y="0px"
   viewBox="0 0 122.88 122.88"
   style="enable-background:new 0 0 122.88 122.88"
   xml:space="preserve"
   sodipodi:docname="cry-icon.svg"
   inkscape:version="1.3 (0e150ed6c4, 2023-07-21)"
   xmlns:inkscape="http://www.inkscape.org/namespaces/inkscape"
   xmlns:sodipodi="http://sodipodi.sourceforge.net/DTD/sodipodi-0.dtd"
   xmlns="http://www.w3.org/2000/svg"
   xmlns:svg="http://www.w3.org/2000/svg"><defs
     id="defs2" /><sodipodi:namedview
     id="namedview2"
     pagecolor="#ffffff"
     bordercolor="#666666"
     borderopacity="1.0"
     inkscape:showpageshadow="2"
     inkscape:pageopacity="0.0"
     inkscape:pagecheckerboard="0"
     inkscape:deskcolor="#d1d1d1"
     showgrid="false"
     inkscape:zoom="1.6153972"
     inkscape:cx="-64.689973"
     inkscape:cy="-7.4285137"
     inkscape:window-width="1920"
     inkscape:window-height="1017"
     inkscape:window-x="1912"
     inkscape:window-y="-8"
     inkscape:window-maximized="1"
     inkscape:current-layer="Layer_1" /><style
     type="text/css"
     id="style1">.st0{fill-rule:evenodd;clip-rule:evenodd;fill:#FBD433;} .st1{fill-rule:evenodd;clip-rule:evenodd;fill:#141518;}</style><path
     class="st0"
     d="m 45.54,2.11 c 32.77,-8.78 66.45,10.67 75.23,43.43 8.78,32.77 -10.67,66.45 -43.43,75.23 C 44.57,129.55 10.89,110.1 2.11,77.34 -6.67,44.57 12.77,10.89 45.54,2.11 Z"
     id="path1" /><path
     d="M 28.12,94.7 C 43.66,78.35 77.98,78.85 93.9,94.74 l 2.41,-2.39 C 78.6,68.57 43.51,67.84 25.6,92.2 Z"
     id="path7" /><path
     d="m 77.1,32.27 c 4.3,0 7.78,5.05 7.78,11.27 0,6.23 -3.48,11.27 -7.78,11.27 -4.3,0 -7.78,-5.05 -7.78,-11.27 -0.01,-6.22 3.48,-11.27 7.78,-11.27 z"
     id="path6" /><path
     d="m 45.78,32.27 c 4.3,0 7.78,5.05 7.78,11.27 0,6.23 -3.48,11.27 -7.78,11.27 -4.3,0 -7.78,-5.05 -7.78,-11.27 0,-6.22 3.48,-11.27 7.78,-11.27 z"
     id="path2" /><path
     style="fill:#dcd5d2;stroke-width:0.999999;fill-opacity:1"
     d="m 75.127258,42.773106 c 1.484769,0 2.688774,-1.270982 2.688774,-2.839188 0,-1.567755 -1.204005,-2.838737 -2.688774,-2.838737 -1.484989,0 -2.68877,1.270982 -2.68877,2.838737 0,1.568206 1.203781,2.839188 2.68877,2.839188 z"
     id="path3" /><path
     style="fill:#dcd5d2;stroke-width:0.999999;fill-opacity:1"
     d="m 43.152744,42.773106 c 1.484989,0 2.68877,-1.270982 2.68877,-2.839188 0,-1.567755 -1.203781,-2.838737 -2.68877,-2.838737 -1.485218,0 -2.688774,1.270982 -2.688774,2.838737 0,1.568206 1.203556,2.839188 2.688774,2.839188 z"
     id="path2-2" /><g
     id="g10"
     transform="matrix(1.0415282,0.23295631,-0.23295631,1.0415282,12.171839,-13.582452)"
     style="stroke-width:0.936976"><path
       style="fill:#00aad4;stroke-width:0.936976"
       d="m 31.83,51.47 c -1.45,6.61 -5.77,9.91 -5.77,13.21 0,3.31 1.44,6.61 5.77,6.61 4.33,0 5.78,-3.3 5.78,-6.61 -0.01,-3.3 -4.34,-6.6 -5.78,-13.21 z"
       id="path4" /><path
       style="fill:#00ccff;stroke-width:0.936976"
       d="m 29.687017,58.692292 c -1.427455,2.387197 -2.751953,4.216749 -2.751953,6.042968 0,1.101725 0.160666,2.201499 0.533203,3.179688 0.699558,-5.56111 2.514255,-6.400542 2.21875,-9.222656 z"
       id="path10"
       sodipodi:nodetypes="cscc" /></g><g
     id="g12"
     transform="matrix(1.018468,-0.31901802,0.31901802,1.018468,40.425372,4.9922379)"
     style="stroke-width:0.936976"><path
       style="fill:#00aad4;stroke-width:0.936976"
       d="m 31.83,51.47 c -1.45,6.61 -5.77,9.91 -5.77,13.21 0,3.31 1.44,6.61 5.77,6.61 4.33,0 5.78,-3.3 5.78,-6.61 -0.01,-3.3 -4.34,-6.6 -5.78,-13.21 z"
       id="path11" /><path
       style="fill:#00ccff;stroke-width:0.936976"
       d="m 29.687017,58.692292 c -1.427455,2.387197 -2.751953,4.216749 -2.751953,6.042968 0,1.101725 0.160666,2.201499 0.533203,3.179688 0.699558,-5.56111 2.514255,-6.400542 2.21875,-9.222656 z"
       id="path12"
       sodipodi:nodetypes="cscc" /></g></svg>
