<?xml version="1.0" encoding="UTF-8" standalone="no"?>
<svg
   shape-rendering="geometricPrecision"
   text-rendering="geometricPrecision"
   image-rendering="optimizeQuality"
   fill-rule="evenodd"
   clip-rule="evenodd"
   viewBox="0 0 539.09175 539.09346"
   version="1.1"
   id="svg5"
   sodipodi:docname="happy-emoji-icon.svg"
   width="539.09174"
   height="539.09344"
   inkscape:version="1.3 (0e150ed6c4, 2023-07-21)"
   xmlns:inkscape="http://www.inkscape.org/namespaces/inkscape"
   xmlns:sodipodi="http://sodipodi.sourceforge.net/DTD/sodipodi-0.dtd"
   xmlns="http://www.w3.org/2000/svg"
   xmlns:svg="http://www.w3.org/2000/svg">
  <defs
     id="defs5" />
  <sodipodi:namedview
     id="namedview5"
     pagecolor="#ffffff"
     bordercolor="#666666"
     borderopacity="1.0"
     inkscape:showpageshadow="2"
     inkscape:pageopacity="0.0"
     inkscape:pagecheckerboard="0"
     inkscape:deskcolor="#d1d1d1"
     inkscape:zoom="0.54828077"
     inkscape:cx="55.628433"
     inkscape:cy="311.884"
     inkscape:window-width="1920"
     inkscape:window-height="1017"
     inkscape:window-x="1912"
     inkscape:window-y="-8"
     inkscape:window-maximized="1"
     inkscape:current-layer="svg5" />
  <ellipse
     fill="#FBD433"
     transform="rotate(-15.000036)"
     id="circle5"
     style="fill:#40270e;fill-opacity:1;stroke-width:2.73716"
     cx="190.59729"
     cy="330.12585"
     rx="269.54581"
     ry="269.54678" />
  <ellipse
     fill="#FBD433"
     transform="rotate(-15.000037)"
     id="circle1"
     style="fill:#ffc09d;fill-opacity:1;stroke-width:2.73716"
     cx="190.59729"
     cy="330.12585"
     rx="255.9351"
     ry="255.936" />
  <path
     fill="#40270e"
     d="m 132.50359,335.85792 c 69.505,-2.157 212.529,1.216 274.081,-0.172 0,165.705 -274.081,181.549 -274.081,0.172 z"
     id="path1" />
  <path
     fill="#ff0000"
     d="m 360.44059,433.82292 c -57.28935,46.08181 -142.37245,38.91561 -184.29447,2.5043 32.412,-36.842 57.13547,-36.9973 92.40147,-8.8003 33.646,-24.855 64.016,-24.321 91.893,6.296 z"
     id="path2"
     sodipodi:nodetypes="cccc" />
  <path
     fill="#ffffff"
     d="m 132.50459,335.85792 c 69.506,-6.316 212.527,-2.806 274.08,-0.172 0.786,58.938 -273.259,58.213 -274.08,0.172 z"
     id="path3" />
  <circle
     style="fill:#ffffff;fill-opacity:1;stroke:none;stroke-width:22.6772;stroke-linecap:round;paint-order:fill markers stroke"
     id="path3-4"
     cx="183.68124"
     cy="205.38588"
     r="60.522778" />
  <circle
     style="fill:#ffffff;fill-opacity:1;stroke:none;stroke-width:22.6772;stroke-linecap:round;paint-order:fill markers stroke"
     id="circle7"
     cx="353.09415"
     cy="205.38588"
     r="60.522778" />
  <path
     d="m 113.19029,150.59924 c -5.82038,4.69385 -14.344401,3.75508 -19.038251,-2.06529 -4.69385,-5.82037 -3.75508,-14.3444 2.06529,-19.03825 14.795011,-11.9036 30.040631,-22.19251 47.201341,-29.815317 17.38602,-7.69792 36.57447,-12.57952 59.06739,-13.51829 7.47261,-0.3004 13.78114,5.51997 14.044,12.99257 0.3004,7.472607 -5.51997,13.781137 -12.99258,14.043997 -18.66274,0.78857 -34.65937,4.84405 -49.19153,11.30279 -14.71991,6.53383 -28.08799,15.54602 -41.15566,26.09779 z"
     id="path7"
     style="fill:#40270e;fill-opacity:1;stroke-width:1" />
  <path
     d="m 440.55802,129.45815 c 5.82037,4.69385 6.75914,13.21788 2.06529,19.03825 -4.69385,5.82037 -13.21787,6.75914 -19.03825,2.06529 -13.06767,-10.51422 -26.3982,-19.56396 -41.15562,-26.09779 -14.53216,-6.42119 -30.52879,-10.51422 -49.19154,-11.30279 -7.4726,-0.30041 -13.29297,-6.57139 -12.99257,-14.043997 0.30041,-7.4726 6.57139,-13.29297 14.044,-12.99257 22.45537,0.93877 41.68137,5.82037 59.06739,13.51829 17.16067,7.622807 32.40629,17.911717 47.2013,29.815317 z"
     id="path2-9"
     style="fill:#40270e;fill-opacity:1;stroke-width:1" />
  <path
     d="m 353.09415,176.54688 c 15.92153,0 28.839,12.91747 28.839,28.839 0,15.92154 -12.91747,28.83901 -28.839,28.83901 -15.92154,0 -28.83901,-12.91747 -28.83901,-28.83901 0,-15.92153 12.91747,-28.839 28.83901,-28.839 z"
     id="path6"
     style="fill:#40270e;fill-opacity:1;stroke-width:1" />
  <path
     d="m 183.68124,176.54688 c -15.92153,0 -28.839,12.91747 -28.839,28.839 0,15.92154 12.91747,28.83901 28.839,28.83901 15.92154,0 28.83901,-12.91747 28.83901,-28.83901 0,-15.92153 -12.91747,-28.839 -28.83901,-28.839 z"
     id="path5"
     style="fill:#40270e;fill-opacity:1;stroke-width:1" />
</svg>
