<?xml version="1.0" encoding="UTF-8" standalone="no"?>
<!-- Created with Inkscape (http://www.inkscape.org/) -->

<svg
   width="151.49907mm"
   height="32.897209mm"
   viewBox="0 0 151.49907 32.897208"
   version="1.1"
   id="svg1"
   inkscape:version="1.3 (0e150ed6c4, 2023-07-21)"
   sodipodi:docname="logo.svg"
   inkscape:export-filename="logo.png"
   inkscape:export-xdpi="96"
   inkscape:export-ydpi="96"
   xmlns:inkscape="http://www.inkscape.org/namespaces/inkscape"
   xmlns:sodipodi="http://sodipodi.sourceforge.net/DTD/sodipodi-0.dtd"
   xmlns="http://www.w3.org/2000/svg"
   xmlns:svg="http://www.w3.org/2000/svg">
  <sodipodi:namedview
     id="namedview1"
     pagecolor="#ffffff"
     bordercolor="#666666"
     borderopacity="1.0"
     inkscape:showpageshadow="2"
     inkscape:pageopacity="0.0"
     inkscape:pagecheckerboard="0"
     inkscape:deskcolor="#d1d1d1"
     inkscape:document-units="mm"
     inkscape:zoom="2.418813"
     inkscape:cx="286.29745"
     inkscape:cy="105.83704"
     inkscape:window-width="1920"
     inkscape:window-height="1017"
     inkscape:window-x="1912"
     inkscape:window-y="-8"
     inkscape:window-maximized="1"
     inkscape:current-layer="layer1"
     showguides="true" />
  <defs
     id="defs1">
    <filter
       inkscape:collect="always"
       style="color-interpolation-filters:sRGB"
       id="filter132"
       x="-0.014871224"
       y="-0.077095799"
       width="1.0297424"
       height="1.1541916">
      <feGaussianBlur
         inkscape:collect="always"
         stdDeviation="0.21803839"
         id="feGaussianBlur132" />
    </filter>
  </defs>
  <g
     inkscape:label="Layer 1"
     inkscape:groupmode="layer"
     id="layer1"
     transform="translate(-35.095023,-114.49346)">
    <path
       id="path132"
       style="font-size:5.64444px;line-height:1.25;font-family:'Cabold Comic';-inkscape-font-specification:'Cabold Comic';opacity:0.522523;fill:#24221c;stroke:none;stroke-width:0.0631447;filter:url(#filter132)"
       d="m 106.71484,115.28125 c -0.60023,0.0206 -0.88001,0.43394 -1.08577,0.94642 -0.0755,0.39084 -0.45569,0.70449 -0.71891,0.9071 -0.71121,-0.56745 -1.67009,-0.32217 -2.52149,-0.47266 0.29147,-0.75903 -0.80749,-0.22613 -0.22589,-1.04041 -0.42917,-0.71032 -1.33929,-0.30963 -2.01082,-0.49363 -0.610317,-0.0811 -1.115957,0.0407 -1.431152,0.53312 -0.377212,0.74555 -0.470437,0.38882 -0.42548,-0.30801 -0.149506,-0.30221 -0.893638,0.41236 -1.277662,0.55671 -0.426045,0.20838 -0.708832,0.67339 -1.035102,0.92073 -0.336789,0.24339 -0.478805,0.0962 -1.053307,0.0306 -0.645787,-0.0713 -1.411962,0.52369 -1.669491,0.82435 0.174192,-1.0311 -0.723128,-2.14612 -1.814486,-1.92124 -0.884628,0.0793 -1.770581,0.14156 -2.656218,0.20835 -0.189239,0.31836 -0.309879,0.63656 -0.01575,1.30473 0.188124,1.24537 0.172345,2.58107 0.214971,3.88667 1.19034,-0.17113 2.467364,0.0266 3.595703,-0.4375 0.391524,-0.42536 0.499762,-0.0766 0.834204,0.23148 0.986243,0.69098 2.494368,0.29063 3.140406,-0.69046 0.577804,0.68447 1.551454,0.4314 2.304687,0.28515 0.05832,-0.54228 0.604722,-0.34262 1.048828,-0.50781 0.390019,0.13308 0.821989,0.27897 1.238279,0.1582 0.0299,0.45468 -0.62672,1.18289 -0.22536,1.43097 0.71739,0.37361 1.54079,0.23255 2.3152,0.23114 0.18396,-0.22945 0.32714,-0.50936 0.33594,-0.86718 0.62713,0.0654 1.16078,-0.57704 1.57227,-0.77539 0.82079,0.7871 1.95969,0.18669 2.91406,0.0762 -0.2328,0.73007 0.44864,0.75411 0.99219,0.71289 0.34666,-0.12572 1.14469,-0.0738 1.0957,-0.49024 0.41458,-0.009 0.79936,0.49725 1.30094,0.4267 0.73183,0.11091 1.43536,-0.2313 1.93929,-0.73138 0.68992,0.50764 1.634,0.48766 2.41594,0.31678 0.70809,0.21229 1.45147,0.26547 2.17586,0.10314 0.0309,-0.56159 0.21817,0.36834 0.48438,0.41797 0.61231,0.48397 1.42678,0.2193 2.11718,0.11328 0.08,-0.52536 0.54571,-0.42221 1.03114,-0.41631 1.28903,-0.0639 2.35802,-1.34524 2.14153,-2.63484 -0.0242,-0.61163 -0.39282,-1.2163 -0.9754,-1.44104 0.46279,-0.3474 0.66,-1.0092 0.002,-1.2158 -0.45632,0.0346 -1.14539,-0.18738 -1.38495,0.2783 -0.61518,0.19096 -0.55593,1.36294 -1.33594,1.41406 -0.12039,-0.44184 0.25731,-1.76564 -0.47846,-1.11371 -0.41546,0.19455 -0.83385,0.52337 -1.22076,0.69379 0.36613,-0.26043 0.75083,-0.82199 0.25107,-1.14797 -0.43102,-0.15036 -1.22727,-0.31983 -1.53427,0.0835 -0.44487,0.0299 -0.58046,0.83411 -0.89649,0.99805 -0.87773,-0.55121 -2.05529,-0.2643 -2.68945,0.50976 -0.62396,-0.53728 -1.57078,-0.60055 -2.31836,-0.30859 -0.54626,-0.22413 -1.24149,-0.48983 -1.76172,-0.0605 -0.53671,0.01 -1.14588,0.19955 -0.98304,-0.57808 -0.39789,-0.15873 -0.9538,0.0932 -0.57819,-0.62062 -0.0447,-0.37609 -1.11662,-0.68864 -1.13799,-0.32669 z m 8.75586,2.46289 c -1.16459,1.03497 -0.32026,-0.28753 0,0 z m -24.261716,-0.0371 c -0.421849,0.63981 -0.417829,-0.27113 0,0 z m 3.523438,0.83789 c -0.740186,1.32383 -0.507993,-0.66678 0,0 z m 27.089848,-0.004 c -0.20165,0.18795 -0.20381,0.0941 0,0 z m -17.85157,0.29101 c -0.52554,0.34754 -0.70564,0.41956 0,0 z"
       transform="matrix(4.1810355,0,0,4.1992106,-333.14189,-366.65907)" />
    <path
       style="font-size:5.64444px;line-height:1.25;font-family:'Cabold Comic';-inkscape-font-specification:'Cabold Comic';fill:#f9f9f9;stroke:none;stroke-width:0.264582"
       d="m 113.03664,117.43117 c -2.5096,0.0864 -3.67935,1.82219 -4.53964,3.97422 -0.31553,1.64122 -1.90526,2.95829 -3.00581,3.8091 -2.97359,-2.38285 -6.982691,-1.35288 -10.542411,-1.9848 1.218657,-3.18734 -3.37615,-0.94957 -0.94448,-4.36892 -1.794367,-2.98276 -5.599607,-1.30018 -8.4073,-2.07282 -2.55173,-0.34059 -4.665846,0.17075 -5.983698,2.23867 -1.577146,3.13071 -1.966895,1.63273 -1.778948,-1.29341 -0.625073,-1.26902 -3.736315,1.73157 -5.341939,2.33775 -1.781308,0.87503 -2.963648,2.8277 -4.327801,3.86634 -1.408132,1.02206 -2.001895,0.40396 -4.403917,0.12839 -2.700057,-0.29949 -5.903451,2.19907 -6.980205,3.4616 0.728316,-4.3298 -3.023415,-9.012 -7.58642,-8.06767 -3.698663,0.33298 -7.402864,0.59441 -11.105744,0.8749 -0.791215,1.33685 -1.295614,2.67303 -0.06585,5.47883 0.786555,5.22957 0.720583,10.83844 0.898804,16.32094 4.976852,-0.7186 10.316135,0.11172 15.033763,-1.83716 1.63698,-1.78615 2.089523,-0.32183 3.487832,0.97204 4.123526,2.90155 10.429037,1.22042 13.130152,-2.8994 2.415813,2.87424 6.486676,1.81157 9.635976,1.19741 0.243926,-2.27713 2.528359,-1.4387 4.38518,-2.1324 1.630704,0.55885 3.436782,1.17146 5.177299,0.66433 0.124907,1.9093 -2.620332,4.96721 -0.942251,6.00894 2.999444,1.56887 6.442113,0.97653 9.679953,0.97062 0.769138,-0.96354 1.367781,-2.13891 1.40457,-3.6415 2.622065,0.27453 4.853275,-2.42309 6.573715,-3.25603 3.43175,3.30523 8.19353,0.78398 12.1838,0.31986 -0.97336,3.06572 1.87575,3.16667 4.14837,2.99357 1.44939,-0.52792 4.78597,-0.31 4.58116,-2.05861 1.73336,-0.0377 3.34215,2.08808 5.43928,1.7918 3.0598,0.46575 6.00129,-0.97129 8.10825,-3.07121 2.88455,2.13167 6.8318,2.04777 10.10113,1.33021 2.96054,0.89145 6.06865,1.11479 9.09734,0.43312 0.12914,-2.35825 0.91218,1.54675 2.0252,1.75514 2.56007,2.03229 5.96543,0.92088 8.85202,0.47568 0.33445,-2.20609 2.28162,-1.77294 4.31123,-1.74815 5.38946,-0.2683 9.85894,-5.64896 8.95379,-11.06425 -0.10104,-2.56838 -1.64237,-5.10753 -4.07815,-6.05127 1.93494,-1.45876 2.75945,-4.2378 0.009,-5.10539 -1.90787,0.14554 -4.7889,-0.78685 -5.7905,1.16865 -2.5721,0.8019 -2.32435,5.72327 -5.58562,5.93793 -0.50336,-1.85537 1.07583,-7.41427 -2.00046,-4.67668 -1.73706,0.81695 -3.48636,2.19772 -5.10403,2.91336 1.53078,-1.0936 3.13923,-3.45172 1.0497,-4.82058 -1.80209,-0.63136 -5.13123,-1.34302 -6.41481,0.35066 -1.86003,0.12544 -2.42693,3.50257 -3.74828,4.191 -3.66981,-2.31464 -8.59322,-1.10985 -11.24468,2.14059 -2.60879,-2.25613 -6.56748,-2.52183 -9.69313,-1.29582 -2.28396,-0.94117 -5.19071,-2.0569 -7.36581,-0.25418 -2.24403,0.042 -4.791,0.83796 -4.11014,-2.42749 -1.66359,-0.66654 -3.98788,0.39138 -2.41742,-2.60612 -0.18702,-1.57929 -4.66863,-2.89175 -4.75799,-1.37185 z"
       id="path96" />
    <g
       id="g82"
       transform="matrix(4.166261,-0.35270613,0.35117954,4.1843719,-382.93745,-379.86828)"
       style="stroke-width:0.0715971">
      <path
         id="text4"
         style="-inkscape-font-specification:'Cabold Comic'"
         d="m 90.624121,127.98643 q 0.264583,0 1.025259,0.011 h 1.091406 q 0.826822,0 1.025259,0.8599 0.03307,0.16536 0.03307,0.33072 0,0.59532 -0.628385,0.82683 0.859895,0.26458 0.879188,0.74689 0.0055,0.12127 0.0055,0.1819 0,0.1571 -0.04134,0.2701 -0.242535,0.63941 -1.207161,0.67524 -0.132291,0 -2.18281,-0.0331 0.10473,-1.44418 0.10473,-2.40329 0.0055,-0.16537 0.0055,-0.31971 0,-0.73587 -0.110243,-1.14652 z m 1.355988,1.65364 q 0.496094,0 0.595312,-0.11575 0.132292,-0.1571 0.132292,-0.27286 0,-0.15434 -0.132292,-0.31143 -0.09922,-0.0772 -0.595312,-0.0772 0.0055,0.11575 0.0055,0.31143 z m 0.496094,1.41111 q 0.496093,0 0.529166,-0.452 0,-0.39687 -0.529166,-0.39687 h -0.496094 q -0.03307,0.23151 -0.03307,0.42995 0,0.25356 0.03307,0.41892 z" />
      <g
         id="text2">
        <path
           style="color:#000000;-inkscape-font-specification:'Cabold Comic';fill:#f9f9f9;-inkscape-stroke:none"
           d="m 90.948267,127.72206 q 0.264583,0 1.025259,0.011 h 1.091406 q 0.826822,0 1.025259,0.85989 0.03307,0.16537 0.03307,0.33073 0,0.59531 -0.628385,0.82682 0.859896,0.26459 0.879188,0.7469 0.0055,0.12127 0.0055,0.1819 0,0.1571 -0.04134,0.2701 -0.242534,0.63941 -1.20716,0.67523 -0.132292,0 -2.182811,-0.0331 0.10473,-1.44418 0.10473,-2.4033 0.0055,-0.16536 0.0055,-0.3197 0,-0.73587 -0.110243,-1.14653 z m 1.355988,1.65365 q 0.496094,0 0.595312,-0.11576 0.132292,-0.15709 0.132292,-0.27285 0,-0.15434 -0.132292,-0.31144 -0.09922,-0.0772 -0.595312,-0.0772 0.0055,0.11576 0.0055,0.31144 z m 0.496094,1.41111 q 0.496093,0 0.529166,-0.452 0,-0.39687 -0.529166,-0.39687 h -0.496094 q -0.03307,0.23151 -0.03307,0.42994 0,0.25356 0.03307,0.41893 z"
           id="path151" />
        <path
           style="color:#000000;-inkscape-font-specification:'Cabold Comic';fill:#1a1a1a;-inkscape-stroke:none"
           d="m 90.949219,127.68555 0.03125,0.0215 -0.06641,0.0234 c 0.07211,0.2686 0.109376,0.64988 0.109375,1.13867 1e-6,0.10247 -0.0022,0.20849 -0.0059,0.31836 0,0.63811 -0.03569,1.44013 -0.105469,2.40234 l -0.002,0.0371 h 0.03711 c 1.367023,0.0221 2.092413,0.0332 2.183593,0.0332 h 0.002 c 0.325433,-0.0121 0.592968,-0.0752 0.800782,-0.19141 0.207813,-0.11624 0.353904,-0.28547 0.4375,-0.50586 v -0.002 c 0.0294,-0.0804 0.04492,-0.17338 0.04492,-0.28125 0,-0.0415 -0.0022,-0.10248 -0.0059,-0.1836 -0.0069,-0.17125 -0.09006,-0.32388 -0.242187,-0.45312 -0.14349,-0.1219 -0.359294,-0.22062 -0.625,-0.30664 0.383877,-0.16307 0.615234,-0.42529 0.615234,-0.8125 0,-0.11263 -0.01071,-0.2254 -0.0332,-0.33789 v -0.002 c -0.06737,-0.29193 -0.189051,-0.51465 -0.367188,-0.66406 -0.178136,-0.1494 -0.411547,-0.22265 -0.693359,-0.22265 h -1.089844 -0.002 c -0.505582,-0.007 -0.84689,-0.0117 -1.023437,-0.0117 z m 0.03711,0.0723 c 0.181108,2.6e-4 0.497655,0.005 0.986328,0.0117 h 1.091797 c 0.269402,0 0.482869,0.0678 0.646484,0.20508 0.163616,0.13722 0.27883,0.34563 0.34375,0.62695 0.02134,0.10735 0.0332,0.21506 0.0332,0.32227 0,0.38428 -0.195886,0.64207 -0.605469,0.79297 l -0.09961,0.0371 0.101563,0.0312 c 0.283746,0.0873 0.495786,0.19277 0.636719,0.3125 0.140933,0.11972 0.210785,0.2501 0.216797,0.40039 0.0037,0.0806 0.0059,0.1423 0.0059,0.18164 0,0.10159 -0.01334,0.1875 -0.03906,0.25781 -0.07809,0.20588 -0.211677,0.35991 -0.40625,0.46875 -0.194104,0.10857 -0.450988,0.16963 -0.767578,0.18164 -0.08376,0 -0.822079,-0.01 -2.144531,-0.0312 0.06767,-0.94281 0.101507,-1.73662 0.101563,-2.36719 v -0.002 c 0.0036,-0.10989 0.0059,-0.21567 0.0059,-0.31836 0,-0.47325 -0.0383,-0.83533 -0.107422,-1.11133 z m 1.28125,0.80469 v 0.0371 c 0.0036,0.0762 0.0059,0.18043 0.0059,0.31055 l -0.0059,0.50195 h 0.03711 c 0.166757,0 0.299468,-0.009 0.402344,-0.0293 0.102877,-0.02 0.176085,-0.0498 0.21875,-0.0996 h 0.002 c 0.09099,-0.10804 0.140625,-0.20606 0.140625,-0.29687 0,-0.11312 -0.04871,-0.22483 -0.140625,-0.33399 l -0.0039,-0.002 -0.002,-0.004 c -0.04448,-0.0346 -0.115063,-0.0513 -0.216797,-0.0644 -0.101734,-0.0132 -0.234098,-0.0195 -0.400391,-0.0195 z m 0.07227,0.0742 c 0.144261,0.001 0.269383,0.004 0.357422,0.0156 0.09573,0.0124 0.155473,0.034 0.177734,0.0508 0.08206,0.0988 0.121094,0.19184 0.121094,0.28321 0,0.0635 -0.03764,0.14859 -0.123047,0.25 -0.02348,0.0274 -0.08413,0.0576 -0.179688,0.0762 -0.08693,0.0169 -0.209871,0.0238 -0.353515,0.0254 l 0.0059,-0.42773 c 0,-0.11445 -0.003,-0.19936 -0.0059,-0.27344 z m -0.06641,1.26562 -0.0039,0.0312 c -0.02225,0.15576 -0.0332,0.29932 -0.0332,0.4336 0,0.17059 0.01047,0.31208 0.0332,0.42578 l 0.0059,0.0293 h 0.52539 c 0.170801,0 0.305748,-0.0386 0.402344,-0.1211 0.0966,-0.0825 0.15061,-0.20612 0.162109,-0.36328 v -0.002 -0.002 c 0,-0.14024 -0.04913,-0.25315 -0.146484,-0.32617 -0.09736,-0.073 -0.237105,-0.10547 -0.417969,-0.10547 z m 0.06445,0.0723 h 0.46289 c 0.171914,0 0.29597,0.0325 0.375,0.0918 0.07903,0.0593 0.117188,0.14324 0.117188,0.26757 -0.01086,0.14298 -0.05539,0.24471 -0.134766,0.3125 -0.07979,0.0682 -0.197494,0.10547 -0.357422,0.10547 h -0.46289 c -0.01866,-0.10353 -0.03125,-0.22838 -0.03125,-0.38476 0,-0.1207 0.01251,-0.25246 0.03125,-0.39258 z"
           id="path152" />
      </g>
      <path
         style="fill:#ff0000;paint-order:fill markers stroke"
         d="m 91.873814,131.55323 -0.921985,-0.0112 0.02,-0.20611 c 0.08325,-0.85745 0.104937,-2.94341 0.03506,-3.37181 l -0.02021,-0.12398 1.05334,8e-4 c 0.597046,5.3e-4 1.117791,0.0155 1.202121,0.0347 0.421384,0.096 0.69605,0.5019 0.701591,1.03693 0.0041,0.39285 -0.172847,0.63183 -0.576758,0.77911 -0.108926,0.0397 -0.185293,0.0839 -0.169706,0.0981 0.01558,0.0143 0.11017,0.0519 0.210182,0.0836 0.38703,0.12271 0.644586,0.29035 0.74685,0.4861 0.02695,0.0516 0.04651,0.18421 0.04633,0.31409 -5.3e-4,0.39708 -0.222335,0.66944 -0.654725,0.80401 -0.248589,0.0774 -0.521571,0.0897 -1.67209,0.0757 z m 1.196065,-0.7344 c 0.163457,-0.0839 0.251317,-0.24086 0.25332,-0.45247 0.0035,-0.36985 -0.167722,-0.47642 -0.765418,-0.47642 -0.38581,0 -0.39964,0.002 -0.418918,0.0744 -0.02609,0.0973 -0.0267,0.7976 -7.93e-4,0.86518 0.0321,0.0837 0.764386,0.0753 0.931785,-0.0107 z m -0.289475,-1.40887 c 0.216641,-0.11203 0.315568,-0.40262 0.207235,-0.60872 -0.102095,-0.19423 -0.192389,-0.23616 -0.555191,-0.2578 l -0.324837,-0.0194 0.02127,0.0796 c 0.0117,0.0438 0.02148,0.26395 0.02175,0.48933 l 5.29e-4,0.40976 0.26824,-0.0224 c 0.147529,-0.0123 0.310015,-0.044 0.361077,-0.0704 z"
         id="path4" />
    </g>
    <g
       id="g84"
       transform="matrix(4.1165772,-0.73451375,0.73133461,4.1344721,-427.17314,-334.7795)"
       style="stroke-width:0.0715971">
      <g
         id="g83">
        <path
           id="path40"
           style="-inkscape-font-specification:'Cabold Comic'"
           d="m 96.116977,130.81416 q 0.457508,-0.0276 1.074869,-0.0469 -0.05788,1.16581 -1.427647,1.19613 -1.342208,0 -1.457963,-1.22645 v -0.26183 q 0,-1.05006 0.868163,-1.4304 0.327973,-0.12954 0.675239,-0.12954 h 0.0689 q 0.975651,0.10749 1.358745,1.48002 l -1.956813,0.35002 q 0.02756,0.26458 0.223242,0.34451 0.104731,0.0276 0.159853,0.0276 0.256315,-0.0303 0.413411,-0.30317 z m -0.162609,-0.80478 q -0.10473,-0.28387 -0.206705,-0.34726 -0.08268,-0.0524 -0.151584,-0.0524 -0.01378,0 -0.02756,0.003 -0.08268,0 -0.184657,0.0579 -0.173633,0.0992 -0.173633,0.28387 0,0.0882 0.01654,0.20947 z" />
        <g
           id="path62">
          <path
             style="color:#000000;-inkscape-font-specification:'Cabold Comic';fill:#f9f9f9;-inkscape-stroke:none"
             d="m 96.441123,130.5498 q 0.457508,-0.0276 1.074869,-0.0469 -0.05788,1.16582 -1.427647,1.19614 -1.342208,0 -1.457963,-1.22645 v -0.26183 q 0,-1.05007 0.868163,-1.4304 0.327973,-0.12954 0.675239,-0.12954 h 0.0689 q 0.975651,0.10749 1.358745,1.48001 l -1.956813,0.35002 q 0.02756,0.26459 0.223242,0.34451 0.104731,0.0276 0.159853,0.0276 0.256315,-0.0303 0.413412,-0.30316 z m -0.162609,-0.80478 q -0.10473,-0.28387 -0.206705,-0.34726 -0.08268,-0.0524 -0.151584,-0.0524 -0.01378,0 -0.02756,0.003 -0.08268,0 -0.184657,0.0579 -0.173633,0.0992 -0.173633,0.28388 0,0.0882 0.01654,0.20946 z"
             id="path149" />
          <path
             style="color:#000000;-inkscape-font-specification:'Cabold Comic';fill:#1a1a1a;-inkscape-stroke:none"
             d="m 96.173828,128.61523 c -0.235962,0 -0.464836,0.0429 -0.6875,0.13086 l -0.002,0.002 c -0.589866,0.25841 -0.890625,0.75298 -0.890625,1.46289 v 0.26367 l 0.002,0.002 c 0.03919,0.41526 0.182318,0.73199 0.433594,0.94336 0.251276,0.21138 0.60574,0.31446 1.058594,0.31445 h 0.002 c 0.461657,-0.0102 0.816147,-0.11586 1.0625,-0.32226 0.246353,-0.20641 0.378798,-0.51262 0.398437,-0.9082 l 0.002,-0.0371 h -0.03711 c -0.41183,0.0129 -0.770701,0.0284 -1.076172,0.0469 l -0.01953,0.002 -0.0098,0.0156 c -0.09992,0.17354 -0.225532,0.26521 -0.382812,0.28516 -3.89e-4,0 -0.0016,0 -0.002,0 -0.03011,-2.1e-4 -0.07961,-0.009 -0.144532,-0.0254 -0.105645,-0.0437 -0.15743,-0.14446 -0.18164,-0.28321 l 1.947265,-0.34961 -0.0098,-0.0371 c -0.128723,-0.46118 -0.309369,-0.81799 -0.541016,-1.07031 -0.231647,-0.25232 -0.516403,-0.39884 -0.849609,-0.43555 h -0.002 z m 0,0.0723 h 0.06836 c 0.315211,0.0358 0.580582,0.17226 0.800782,0.41211 0.213472,0.23252 0.380355,0.57333 0.505859,1.00391 l -1.943359,0.34765 0.0039,0.0332 c 0.01924,0.18471 0.101429,0.31672 0.244141,0.375 h 0.0039 0.002 c 0.07132,0.0188 0.125246,0.0293 0.167969,0.0293 h 0.002 0.002 c 0.17267,-0.0204 0.311064,-0.13213 0.417969,-0.30273 0.287932,-0.0173 0.63065,-0.0325 1.013672,-0.0449 -0.02733,0.35543 -0.136475,0.63292 -0.355469,0.8164 -0.229529,0.19231 -0.568012,0.29665 -1.019531,0.30664 -0.441951,0 -0.777008,-0.10138 -1.011719,-0.29883 -0.234711,-0.19744 -0.37218,-0.49411 -0.410156,-0.89648 v -0.25781 c 0,-0.68904 0.279914,-1.14751 0.845703,-1.39649 0.214633,-0.0848 0.43505,-0.12695 0.662109,-0.12695 z m -0.253906,0.62109 c -0.0092,0 -0.01823,0.002 -0.02734,0.004 -0.06348,0 -0.131528,0.0219 -0.203125,0.0625 -0.124063,0.0709 -0.191406,0.18011 -0.191406,0.31445 0,0.061 0.0064,0.13286 0.01758,0.21485 l 0.0059,0.0391 0.804688,-0.17188 -0.01367,-0.0391 c -0.07083,-0.19197 -0.138991,-0.31322 -0.222656,-0.36523 -0.05828,-0.0366 -0.115472,-0.0586 -0.169922,-0.0586 z m 0,0.0723 c 0.03686,0 0.08149,0.0143 0.132812,0.0469 0.04642,0.0289 0.108657,0.14265 0.169922,0.29297 l -0.638672,0.13672 c -0.0073,-0.0619 -0.01367,-0.12162 -0.01367,-0.16797 0,-0.1119 0.0488,-0.19056 0.15625,-0.25195 0.06437,-0.0366 0.119253,-0.0527 0.166016,-0.0527 h 0.0039 l 0.0039,-0.002 c 0.0068,-0.001 0.01294,-0.002 0.01953,-0.002 z"
             id="path150" />
        </g>
        <path
           style="fill:#0a8fff;paint-order:fill markers stroke"
           d="m 95.624024,131.60678 c -0.636712,-0.11328 -0.994476,-0.5826 -0.992701,-1.30224 0.0011,-0.47732 0.123216,-0.83134 0.38191,-1.10791 0.371708,-0.39739 1.040498,-0.54013 1.512271,-0.32278 0.34113,0.15716 0.648732,0.54546 0.815057,1.0289 l 0.06186,0.17979 -0.07161,0.0165 c -0.03939,0.009 -0.475575,0.088 -0.969304,0.17545 l -0.897686,0.15899 0.01754,0.11673 c 0.03887,0.25847 0.192328,0.39776 0.438206,0.39776 0.175966,0 0.27119,-0.0417 0.401825,-0.17588 l 0.111236,-0.11427 0.454605,-0.0242 c 0.278569,-0.0148 0.454604,-0.0122 0.454604,0.007 0,0.0171 -0.02387,0.11145 -0.05305,0.2097 -0.106405,0.35831 -0.330698,0.57829 -0.709996,0.69634 -0.245063,0.0763 -0.702731,0.10521 -0.95477,0.0604 z m 0.229708,-1.67224 c 0.227476,-0.0482 0.424493,-0.097 0.437817,-0.10854 0.03817,-0.0329 -0.157697,-0.41752 -0.24306,-0.47731 -0.200871,-0.1407 -0.579125,-0.01 -0.657457,0.2276 -0.03801,0.11518 -0.01744,0.4459 0.02773,0.4459 0.01175,0 0.207494,-0.0394 0.434972,-0.0876 z"
           id="path5" />
      </g>
    </g>
    <g
       id="g85"
       transform="matrix(4.1571417,-0.44829262,0.44635231,4.175213,-393.68576,-368.19655)"
       style="stroke-width:0.0715971">
      <path
         style="-inkscape-font-specification:'Cabold Comic'"
         d="m 98.837222,128.05257 q -0.05512,0.59807 -0.05512,1.05007 v 0.0413 h 0.248046 q 0.198438,-0.0331 0.297656,-0.0331 -0.132291,0.65044 -0.132291,0.77446 v 0.0193 h -0.429948 l -0.03858,0.95912 q 0.03307,0.33073 0.225998,0.33073 0.137804,0 0.308681,-0.0661 0.09922,0.29766 0.09922,0.52917 0,0.0992 -0.03307,0.19843 -0.297656,0.0331 -0.529166,0.0331 -0.727604,0 -0.926041,-0.46302 -0.06615,-0.16537 -0.06615,-0.95912 v -0.56224 h -0.396874 q -0.132292,-0.33072 -0.132292,-0.76067 h 0.562239 v -0.52917 q 0.03307,-0.16536 0.997699,-0.56224 z"
         id="path42" />
      <g
         id="path64">
        <path
           style="color:#000000;-inkscape-font-specification:'Cabold Comic';fill:#f9f9f9;-inkscape-stroke:none"
           d="m 99.161368,127.78821 q -0.05512,0.59807 -0.05512,1.05006 v 0.0413 h 0.248046 q 0.198438,-0.0331 0.297656,-0.0331 -0.132291,0.65043 -0.132291,0.77446 v 0.0193 H 99.08971 l -0.03858,0.95911 q 0.03307,0.33073 0.225998,0.33073 0.137804,0 0.308681,-0.0661 0.09922,0.29765 0.09922,0.52916 0,0.0992 -0.03307,0.19844 -0.297656,0.0331 -0.529166,0.0331 -0.727604,0 -0.926041,-0.46302 -0.06615,-0.16536 -0.06615,-0.95911 v -0.56224 h -0.396874 q -0.132292,-0.33073 -0.132292,-0.76068 h 0.562239 v -0.52916 q 0.03307,-0.16537 0.997699,-0.56224 z"
           id="path147" />
        <path
           style="color:#000000;-inkscape-font-specification:'Cabold Comic';fill:#1a1a1a;-inkscape-stroke:none"
           d="m 99.203125,127.73242 -0.05469,0.0234 c -0.322285,0.13259 -0.567725,0.24483 -0.736328,0.33984 -0.0843,0.0475 -0.150165,0.0913 -0.197265,0.13086 -0.0471,0.0395 -0.07742,0.0746 -0.08594,0.11719 l -0.002,0.004 v 0.49609 h -0.560547 v 0.0352 c 0,0.2903 0.04458,0.54993 0.134766,0.77539 l 0.0078,0.0215 h 0.386719 v 0.52734 c 0,0.26509 0.0045,0.47747 0.01563,0.63868 0.01112,0.1612 0.02702,0.26969 0.05273,0.33398 0.06927,0.16162 0.186608,0.28471 0.347657,0.36524 0.161049,0.0805 0.364997,0.11914 0.611328,0.11914 0.156046,0 0.333753,-0.011 0.533203,-0.0332 l 0.02148,-0.002 0.0078,-0.0215 c 0.02318,-0.0696 0.03516,-0.14083 0.03516,-0.21094 0,-0.15946 -0.03454,-0.33799 -0.101562,-0.53906 l -0.01172,-0.0371 -0.03516,0.0137 c -0.110898,0.0429 -0.208777,0.0644 -0.294922,0.0644 -0.05408,0 -0.09073,-0.0191 -0.123047,-0.0664 -0.03231,-0.0473 -0.05768,-0.1256 -0.06836,-0.23242 l 0.03906,-0.91992 h 0.429687 v -0.0547 c 0,-0.035 0.01126,-0.12155 0.0332,-0.25 0.02194,-0.12845 0.05556,-0.30098 0.09961,-0.51757 l 0.0078,-0.043 h -0.04297 c -0.06879,0 -0.169346,0.0118 -0.298828,0.0332 h -0.210938 v -0.006 c 0,-0.29987 0.01802,-0.64898 0.05469,-1.04687 z m -0.08203,0.11524 c -0.03258,0.37038 -0.05078,0.70543 -0.05078,0.99023 v 0.0781 h 0.28711 l 0.002,-0.002 c 0.11124,-0.0186 0.186097,-0.0246 0.248047,-0.0273 -0.03833,0.19017 -0.06969,0.35469 -0.08984,0.47265 -0.02067,0.12101 -0.02982,0.19503 -0.03125,0.24415 h -0.431641 l -0.03906,0.99609 v 0.004 c 0.01137,0.11367 0.0351,0.20071 0.07813,0.26367 0.04302,0.063 0.109056,0.0996 0.183594,0.0996 0.08512,0 0.181452,-0.026 0.28125,-0.0606 0.05756,0.18136 0.08984,0.34612 0.08984,0.48633 0,0.055 -0.01098,0.11057 -0.02734,0.16601 -0.184945,0.0197 -0.353361,0.0312 -0.498047,0.0312 -0.238738,0 -0.432447,-0.0395 -0.580078,-0.11328 -0.147631,-0.0738 -0.249475,-0.18106 -0.3125,-0.32812 -0.01838,-0.046 -0.03594,-0.154 -0.04687,-0.3125 -0.01093,-0.1585 -0.01758,-0.36873 -0.01758,-0.63282 v -0.59765 h -0.402344 c -0.0772,-0.20043 -0.117127,-0.43173 -0.121094,-0.68945 h 0.556641 v -0.5586 c 0.0025,-0.0125 0.02095,-0.0413 0.0625,-0.0762 0.04155,-0.0349 0.103566,-0.0769 0.185547,-0.12305 0.151639,-0.0854 0.387957,-0.19117 0.673828,-0.31054 z"
           id="path148" />
      </g>
      <path
         style="fill:#ff0000;paint-order:fill markers stroke"
         d="m 98.813107,131.54378 c -0.306207,-0.0467 -0.488063,-0.15977 -0.601104,-0.37364 -0.04667,-0.0883 -0.0587,-0.23211 -0.07042,-0.84213 l -0.01413,-0.73563 H 97.92042 97.713388 l -0.03454,-0.14051 c -0.019,-0.0773 -0.04477,-0.21119 -0.05727,-0.29756 l -0.02273,-0.15705 h 0.284784 0.284782 v -0.31064 -0.31064 l 0.157046,-0.10053 c 0.140417,-0.0899 0.5818,-0.30311 0.627427,-0.30311 0.0098,0 0.0071,0.2326 -0.0061,0.51689 l -0.02402,0.51688 0.269806,-0.0156 c 0.260289,-0.0151 0.269251,-0.0132 0.254016,0.0534 -0.0087,0.038 -0.03439,0.17692 -0.05713,0.30875 l -0.04134,0.2397 H 99.14329 98.938462 l -0.02109,0.22317 c -0.04037,0.42751 -0.02556,0.96261 0.02963,1.06932 0.06375,0.12328 0.188878,0.17321 0.367289,0.14657 l 0.137438,-0.0205 0.03614,0.16851 c 0.04733,0.2207 0.0457,0.32963 -0.0052,0.34559 -0.09647,0.0302 -0.51702,0.042 -0.66951,0.0188 z"
         id="path6" />
    </g>
    <g
       id="g86"
       transform="matrix(4.1949985,0.23390246,-0.22518907,4.0739151,-310.54203,-424.97163)"
       style="stroke-width:0.0724571">
      <path
         id="path45"
         style="-inkscape-font-specification:'Cabold Comic'"
         d="m 101.02555,128.01118 c -0.26458,0.0221 -0.49609,0.0331 -0.69453,0.0331 -0.11024,0.15434 -0.25355,0.40789 -0.429947,0.76067 h 0.529167 c 0.13229,-0.11024 0.35278,-0.34175 0.66146,-0.69453 0.0221,-0.0221 0.0331,-0.0441 0.0331,-0.0661 0,-0.0221 -0.0331,-0.0331 -0.0992,-0.0331 z m 1.2237,0 c -0.26459,0.0221 -0.4961,0.0331 -0.69453,0.0331 -0.11025,0.15434 -0.25356,0.40789 -0.42995,0.76067 h 0.52917 c 0.13228,-0.11024 0.35277,-0.34175 0.66146,-0.69453 0.0221,-0.0221 0.0331,-0.0441 0.0331,-0.0661 0,-0.0221 -0.0331,-0.0331 -0.0992,-0.0331 z m -2.16628,1.00046 c -0.161687,0 -0.319527,0.0296 -0.473867,0.0884 0.1176,0.64676 0.17622,1.2125 0.17622,1.69757 0,0.55121 0.220477,0.89296 0.661457,1.02526 0.0882,0.0221 0.16537,0.0331 0.23151,0.0331 0.33072,0 0.62838,-0.17639 0.89297,-0.52917 v 0.46302 c 0.17638,0.0661 0.34175,0.0992 0.49609,0.0992 0.15434,0 0.29765,-0.0331 0.42995,-0.0992 0,-1.43315 0.0531,-2.35845 0.15968,-2.77554 -0.23886,0.0202 -0.47939,0.0305 -0.72192,0.0305 -0.15434,0 -0.30868,-0.004 -0.46302,-0.0108 0.0221,0.73495 0.0331,1.17943 0.0331,1.33377 0,0.35279 -0.12127,0.56225 -0.3638,0.62838 h -0.0992 c -0.17639,0 -0.26458,-0.15434 -0.26458,-0.46302 v -1.43298 c -0.26459,-0.0588 -0.4961,-0.0884 -0.69454,-0.0884 z" />
      <g
         id="path65">
        <path
           style="color:#000000;-inkscape-font-specification:'Cabold Comic';fill:#f9f9f9;-inkscape-stroke:none"
           d="m 102.82144,131.52545 q -0.19844,0.0992 -0.42995,0.0992 -0.23151,0 -0.4961,-0.0992 v -0.46302 q -0.39687,0.52916 -0.89296,0.52916 -0.0992,0 -0.23151,-0.0331 -0.66146,-0.19844 -0.66146,-1.02526 0,-0.7276 -0.176391,-1.69774 0.231511,-0.0882 0.474041,-0.0882 0.29766,0 0.69453,0.0882 v 1.43316 q 0,0.46302 0.26459,0.46302 h 0.0992 q 0.3638,-0.0992 0.3638,-0.62839 0,-0.23151 -0.0331,-1.33394 0.23151,0.011 0.46302,0.011 0.3638,0 0.72209,-0.0303 -0.15985,0.62563 -0.15985,2.77537 z m -1.47175,-3.77858 q 0.0992,0 0.0992,0.0331 0,0.0331 -0.0331,0.0662 -0.46302,0.52916 -0.66146,0.69453 h -0.52917 q 0.26459,-0.52917 0.42995,-0.76068 0.29766,0 0.69453,-0.0331 z m 1.2237,0 q 0.0992,0 0.0992,0.0331 0,0.0331 -0.0331,0.0662 -0.46302,0.52916 -0.66145,0.69453 h -0.52917 q 0.26458,-0.52917 0.42995,-0.76068 0.29765,0 0.69453,-0.0331 z"
           id="path145" />
        <path
           style="color:#000000;-inkscape-font-specification:'Cabold Comic';fill:#1a1a1a;-inkscape-stroke:none"
           d="m 101.33398,127.71094 c -0.25826,0.0213 -0.48592,0.0332 -0.67968,0.0332 h -0.0176 l -0.0117,0.0156 c -0.11252,0.15752 -0.25484,0.41203 -0.43164,0.76562 l -0.0273,0.0508 h 0.60156 l 0.01,-0.008 c 0.13586,-0.11322 0.35632,-0.34567 0.66407,-0.69727 l 0.002,-0.002 c 0.0252,-0.0259 0.041,-0.0566 0.041,-0.0898 0,-0.0146 -0.006,-0.0292 -0.0156,-0.0391 -0.01,-0.01 -0.0215,-0.0156 -0.0332,-0.0195 -0.0234,-0.008 -0.0509,-0.01 -0.0859,-0.01 h -0.004 z m 1.22266,0 c -0.25735,0.0211 -0.48453,0.0332 -0.67773,0.0332 h -0.0195 l -0.01,0.0156 c -0.11252,0.15752 -0.2568,0.41203 -0.43359,0.76562 l -0.0254,0.0508 h 0.5996 l 0.0117,-0.008 c 0.13604,-0.11337 0.35564,-0.34485 0.66407,-0.69727 v -0.002 c 0.0256,-0.026 0.043,-0.0563 0.043,-0.0898 0,-0.0146 -0.008,-0.0292 -0.0176,-0.0391 -0.01,-0.01 -0.0196,-0.0156 -0.0312,-0.0195 -0.0234,-0.008 -0.0509,-0.01 -0.0859,-0.01 h -0.004 c -0.005,4.3e-4 -0.008,-4.3e-4 -0.0137,0 z m -1.20703,0.0723 h 0.002 c 9.5e-4,10e-6 0.001,-1e-5 0.002,0 0.0262,3.4e-4 0.0449,0.003 0.0547,0.006 -0.002,0.009 -0.004,0.0175 -0.0176,0.0312 l -0.002,0.002 c -0.30376,0.34715 -0.51932,0.57269 -0.64844,0.68164 h -0.45312 c 0.15639,-0.30855 0.29096,-0.54818 0.39062,-0.68946 0.19407,-7.1e-4 0.41729,-0.0101 0.67188,-0.0312 z m 1.22461,0 h 0.002 c 0.0267,1.7e-4 0.0442,0.003 0.0547,0.006 -0.002,0.009 -0.004,0.0177 -0.0176,0.0312 v 0.002 h -0.002 c -0.30376,0.34714 -0.51737,0.57268 -0.64649,0.68164 h -0.45507 c 0.15638,-0.30855 0.29095,-0.54818 0.39062,-0.68946 0.195,-6.6e-4 0.41761,-0.01 0.67383,-0.0312 z m 0.45508,0.92578 -0.0508,0.006 c -0.23784,0.0201 -0.47723,0.0293 -0.71875,0.0293 -0.15377,0 -0.30913,-0.004 -0.46289,-0.0117 l -0.0391,-0.002 0.002,0.0391 c 0.0221,0.73488 0.0332,1.18137 0.0332,1.33399 0,0.17224 -0.0297,0.30524 -0.0859,0.40234 -0.0557,0.0963 -0.13815,0.15827 -0.25,0.18945 h -0.0898 c -0.0776,0 -0.12904,-0.0295 -0.16797,-0.0977 -0.0389,-0.0681 -0.0605,-0.17724 -0.0605,-0.32813 v -1.46289 l -0.0293,-0.006 c -0.26646,-0.0592 -0.50111,-0.0898 -0.70313,-0.0898 -0.16608,0 -0.32805,0.0295 -0.486328,0.0898 l -0.02734,0.0117 0.0039,0.0293 c 0.117308,0.64519 0.175788,1.20926 0.175788,1.6914 0,0.28044 0.0568,0.51112 0.17187,0.68946 0.11505,0.17833 0.28851,0.30295 0.51563,0.37109 h 0.002 c 0.0903,0.0226 0.17007,0.0332 0.24023,0.0332 0.31973,0 0.60198,-0.19471 0.85743,-0.50586 v 0.42969 l 0.0234,0.008 c 0.17965,0.0674 0.3483,0.10157 0.50782,0.10157 0.15951,0 0.30993,-0.0329 0.44726,-0.10157 l 0.0508,-0.0254 -0.0312,-0.0234 c 6.1e-4,-1.41854 0.0547,-2.34486 0.15821,-2.75 z m -2.62305,0.0742 c 0.18655,0 0.40944,0.0305 0.6582,0.084 v 1.40234 c 0,0.15779 0.023,0.27903 0.0723,0.36524 0.0493,0.0862 0.1317,0.13281 0.23047,0.13281 h 0.10351 0.004 c 0.12915,-0.0352 0.22987,-0.11225 0.29492,-0.22461 0.065,-0.11237 0.0957,-0.25891 0.0957,-0.43945 0,-0.15174 -0.0123,-0.59992 -0.0332,-1.29883 0.14255,0.006 0.28518,0.0117 0.42774,0.0117 0.22975,0 0.45709,-0.009 0.68359,-0.0273 -0.10403,0.43169 -0.15519,1.32363 -0.15625,2.70703 -0.12268,0.0583 -0.25364,0.0918 -0.39648,0.0918 -0.14197,0 -0.29532,-0.033 -0.45899,-0.0918 v -0.54297 l -0.0645,0.0879 c -0.26023,0.34697 -0.54739,0.51367 -0.86524,0.51367 -0.0616,0 -0.1355,-0.0101 -0.2207,-0.0312 h -0.002 c -0.21297,-0.0642 -0.36947,-0.17687 -0.47461,-0.33985 -0.10544,-0.16342 -0.15821,-0.37961 -0.15821,-0.65039 0,-0.47792 -0.0607,-1.03822 -0.173824,-1.66992 0.141784,-0.0507 0.285674,-0.0801 0.433594,-0.0801 z"
           id="path146" />
      </g>
      <path
         id="path9"
         style="fill:#0a8fff;paint-order:fill markers stroke"
         d="m 101.55534,128.41041 c 0.0119,-0.0318 0.0831,-0.16572 0.15821,-0.29756 l 0.13654,-0.2397 h 0.2967 0.29669 l -0.19141,0.20664 c -0.33234,0.35877 -0.37491,0.38848 -0.55657,0.38848 -0.14034,0 -0.15896,-0.008 -0.14016,-0.0579 z m -1.2233,0 c 0.0119,-0.0318 0.0831,-0.16572 0.15821,-0.29756 l 0.13654,-0.2397 h 0.29691 0.2969 l -0.20895,0.22317 c -0.32854,0.3509 -0.35864,0.3716 -0.5407,0.37178 -0.13919,1.5e-4 -0.1577,-0.008 -0.13891,-0.0577 z m 1.77851,3.13101 c -0.0776,-0.0155 -0.15567,-0.0372 -0.17357,-0.0483 -0.0179,-0.0111 -0.0333,-0.1643 -0.0343,-0.34052 l -0.002,-0.32041 -0.1056,0.13225 c -0.40804,0.51099 -0.78395,0.66657 -1.18143,0.48898 -0.36418,-0.16272 -0.46266,-0.37277 -0.50047,-1.06757 -0.0255,-0.46918 -0.10412,-1.19969 -0.148434,-1.37984 -0.0284,-0.11535 0.110204,-0.15114 0.501214,-0.12948 0.18184,0.0101 0.36409,0.0282 0.40501,0.0403 l 0.0744,0.022 v 0.7907 c 0,0.60142 0.011,0.81711 0.0461,0.90103 0.1583,0.37886 0.67026,0.2457 0.80235,-0.20869 0.0443,-0.15234 0.0488,-0.28619 0.0287,-0.85227 l -0.0239,-0.67155 0.32553,-2.6e-4 c 0.17905,-1.6e-4 0.40172,-0.009 0.49483,-0.0206 l 0.16929,-0.0203 -0.0275,0.17411 c -0.0498,0.31512 -0.0961,1.19426 -0.0961,1.82435 0,0.55635 -0.006,0.62236 -0.0579,0.64931 -0.0936,0.0486 -0.34451,0.0672 -0.49644,0.0368 z" />
    </g>
    <g
       id="g87"
       transform="matrix(4.1660267,0.35548674,-0.35394811,4.1841366,-290.71827,-449.98157)"
       style="stroke-width:0.0715971">
      <path
         id="path46"
         style="-inkscape-font-specification:'Cabold Comic'"
         d="m 102.83353,132.89775 q 0.26458,-0.99219 0.26458,-1.98437 0,-0.89297 -0.23151,-1.87413 0.13229,0 0.59531,-0.006 0.46302,-0.006 0.62839,-0.006 -0.0992,0.16537 -0.0992,0.4961 0.42995,-0.4961 0.85989,-0.4961 0.26459,0 0.4961,0.16537 0.56224,0.42994 0.56224,1.22369 v 0.0992 q -0.0331,0.72761 -0.29766,1.05834 -0.33073,0.3638 -0.69453,0.3638 -0.42995,0 -0.92604,-0.56224 -0.0662,0.33073 -0.0662,0.62838 0,0.46302 0.13229,0.89297 -0.49609,0.0661 -0.79375,0.0661 -0.29765,0 -0.42994,-0.0661 z m 1.62608,-2.29305 q 0,0.42994 0.33073,0.42994 0.33073,0 0.33073,-0.39687 0,-0.52917 -0.33073,-0.52917 -0.33073,0 -0.33073,0.4961 z" />
      <g
         id="path68">
        <path
           style="color:#000000;-inkscape-font-specification:'Cabold Comic';fill:#f9f9f9;-inkscape-stroke:none"
           d="m 103.15768,132.63339 q 0.26458,-0.99219 0.26458,-1.98438 0,-0.89296 -0.23151,-1.87413 0.13229,0 0.59531,-0.006 0.46302,-0.006 0.62839,-0.006 -0.0992,0.16536 -0.0992,0.49609 0.42994,-0.49609 0.85989,-0.49609 0.26458,0 0.4961,0.16536 0.56223,0.42995 0.56223,1.2237 v 0.0992 q -0.0331,0.7276 -0.29765,1.05833 -0.33073,0.3638 -0.69453,0.3638 -0.42995,0 -0.92604,-0.56224 -0.0661,0.33073 -0.0661,0.62839 0,0.46302 0.13229,0.89297 -0.49609,0.0661 -0.79375,0.0661 -0.29765,0 -0.42994,-0.0661 z m 1.62608,-2.29306 q 0,0.42995 0.33073,0.42995 0.33073,0 0.33073,-0.39687 0,-0.52917 -0.33073,-0.52917 -0.33073,0 -0.33073,0.49609 z"
           id="path154" />
        <path
           style="color:#000000;-inkscape-font-specification:'Cabold Comic';fill:#1a1a1a;-inkscape-stroke:none"
           d="m 104.41406,128.72656 c -0.11068,0 -0.32017,0.002 -0.6289,0.006 -0.30864,0.004 -0.5061,0.006 -0.59375,0.006 h -0.0449 l 0.01,0.0449 c 0.15378,0.65175 0.23047,1.27303 0.23047,1.86524 0,0.64268 -0.0904,1.28671 -0.25781,1.92968 l -0.004,-0.002 -0.004,0.0547 0.0606,0.01 -0.0391,0.0234 c 0.0978,0.0489 0.24423,0.0703 0.44531,0.0703 0.20109,0 0.46717,-0.0222 0.79883,-0.0664 l 0.041,-0.006 -0.0117,-0.041 c -0.0871,-0.28318 -0.13086,-0.57559 -0.13086,-0.88086 0,-0.17981 0.0218,-0.37333 0.0586,-0.57226 0.31301,0.33703 0.61358,0.54101 0.89844,0.54101 0.25446,0 0.49582,-0.12763 0.7207,-0.375 v -0.002 c 0.18391,-0.22992 0.28439,-0.59093 0.30664,-1.08008 v -0.0996 c 0,-0.53761 -0.19291,-0.95886 -0.57617,-1.25195 l -0.002,-0.002 c -0.1596,-0.11399 -0.33178,-0.17188 -0.51563,-0.17188 -0.27472,0 -0.54403,0.18567 -0.81055,0.4668 0.008,-0.173 0.0278,-0.32497 0.0801,-0.41211 l 0.0332,-0.0547 z m -0.043,0.0723 c -0.0566,0.11646 -0.0918,0.2607 -0.0918,0.46094 v 0.0957 l 0.0625,-0.0723 c 0.28276,-0.32626 0.56112,-0.48437 0.83398,-0.48437 0.16893,0 0.32551,0.0517 0.47461,0.1582 0.36638,0.28018 0.54688,0.6746 0.54688,1.19531 v 0.0996 c -0.0221,0.47884 -0.12108,0.82242 -0.28907,1.03321 -2.9e-4,3.7e-4 3e-4,0.002 0,0.002 -0.21537,0.23601 -0.43622,0.34961 -0.66601,0.34961 -0.27103,0 -0.57306,-0.17785 -0.90039,-0.54883 l -0.0469,-0.0547 -0.0156,0.0703 c -0.0445,0.22251 -0.0664,0.43562 -0.0664,0.63671 0,0.29726 0.0479,0.58207 0.12891,0.85938 -0.3095,0.0401 -0.56682,0.0625 -0.75391,0.0625 -0.18467,0 -0.30998,-0.0233 -0.39062,-0.0586 0.17026,-0.65131 0.26171,-1.30349 0.26171,-1.95508 0,-0.58471 -0.0787,-1.19774 -0.22656,-1.83789 0.0967,-2.6e-4 0.26722,-0.002 0.55469,-0.006 0.28747,-0.004 0.46897,-0.006 0.58398,-0.006 z m 0.74414,1.00976 c -0.11919,0 -0.21806,0.0488 -0.27929,0.14063 -0.0612,0.0918 -0.0879,0.22128 -0.0879,0.39062 0,0.14791 0.0277,0.26491 0.0898,0.34571 0.0622,0.0808 0.15934,0.12109 0.27734,0.12109 0.11741,0 0.21276,-0.0381 0.2754,-0.11328 0.0626,-0.0752 0.0898,-0.18305 0.0898,-0.32031 0,-0.18012 -0.0271,-0.31873 -0.0879,-0.41602 -0.0608,-0.0973 -0.15756,-0.14844 -0.27735,-0.14844 z m 0,0.0723 c 0.1007,0 0.16736,0.0361 0.2168,0.11523 0.0494,0.0791 0.0781,0.2043 0.0781,0.37696 0,0.12731 -0.0266,0.21826 -0.0742,0.27539 -0.0476,0.0571 -0.11762,0.0859 -0.22071,0.0859 -0.10248,0 -0.17261,-0.0312 -0.2207,-0.0937 -0.0481,-0.0625 -0.0742,-0.16205 -0.0742,-0.30078 0,-0.16138 0.0272,-0.27804 0.0762,-0.35156 0.049,-0.0735 0.11746,-0.10742 0.21875,-0.10742 z"
           id="path153" />
      </g>
      <path
         style="fill:#ff0000;paint-order:fill markers stroke"
         d="m 103.23493,132.60943 c -0.0329,-0.0231 -0.0279,-0.0939 0.0242,-0.34111 0.21193,-1.00623 0.21169,-2.2478 -5.3e-4,-3.19516 -0.0186,-0.0829 -0.027,-0.15762 -0.0186,-0.16595 0.008,-0.008 0.22262,-0.0234 0.47617,-0.0334 l 0.461,-0.0183 -0.014,0.32709 -0.014,0.32709 0.17544,-0.18699 c 0.36618,-0.39027 0.63955,-0.50531 0.97149,-0.40881 0.14638,0.0426 0.2276,0.0943 0.36703,0.2337 0.29961,0.2996 0.43775,0.72935 0.39541,1.23012 -0.0431,0.50943 -0.17694,0.84226 -0.41448,1.0304 -0.39548,0.31323 -0.72855,0.25743 -1.2136,-0.20331 -0.13132,-0.12475 -0.24615,-0.21485 -0.25518,-0.20023 -0.009,0.0146 -0.0347,0.15174 -0.0571,0.30472 -0.0448,0.3061 -0.0252,0.9279 0.0357,1.13777 0.0203,0.0699 0.0303,0.13369 0.0222,0.14177 -0.0297,0.0297 -0.90069,0.0487 -0.9409,0.0206 z m 2.00985,-1.77778 c 0.14011,-0.0725 0.19729,-0.20773 0.19729,-0.46676 0,-0.26111 -0.0874,-0.47694 -0.21695,-0.53599 -0.24462,-0.11146 -0.50994,0.0121 -0.57932,0.26973 -0.0529,0.19659 -0.0243,0.49963 0.0577,0.61004 0.12761,0.17189 0.3493,0.22226 0.54128,0.12298 z"
         id="path10" />
    </g>
    <g
       id="g95"
       transform="matrix(4.1520865,-0.49329214,0.49115707,4.1701358,-389.10352,-312.91374)"
       style="stroke-width:0.0715971;stroke-dasharray:none">
      <g
         id="path73"
         style="stroke-width:0.0715971;stroke-dasharray:none">
        <path
           style="color:#000000;-inkscape-font-specification:'Cabold Comic';fill:#f9f9f9;stroke-width:0.0715971;stroke-dasharray:none"
           d="m 108.63906,118.21333 q 0.66146,0 1.05833,0.0661 v 0.39688 q 0.13229,-0.56224 0.56224,-0.56224 0.23151,0 0.59531,0.19843 -0.19843,0.26459 -0.3638,0.76068 -0.13229,-0.0331 -0.23151,-0.0331 -0.56224,0 -0.56224,0.85989 v 0.23151 q 0.0662,0.85439 0.0662,0.88746 -0.33073,0.0661 -0.56224,0.0661 -0.26458,0 -0.42995,-0.0661 0.0662,-0.52365 0.0662,-1.01975 0,-0.85989 -0.19844,-1.78593 z"
           id="path139" />
        <path
           style="color:#000000;-inkscape-font-specification:'Cabold Comic';fill:#1a1a1a;stroke-width:0.0715971;stroke-dasharray:none"
           d="m 110.25977,118.07813 c -0.15112,0 -0.2807,0.0502 -0.38086,0.15039 -0.0677,0.0677 -0.10444,0.18713 -0.14649,0.29687 V 118.25 l -0.0293,-0.006 c -0.26039,-0.0434 -0.60987,-0.0633 -1.03516,-0.0645 l -0.006,-0.0273 -0.13672,0.0977 h 0.082 c 0.1275,0.60426 0.19531,1.18891 0.19531,1.75 0,0.32914 -0.0224,0.66597 -0.0664,1.01367 l -0.004,0.0273 0.0254,0.0117 c 0.11636,0.0465 0.26399,0.0684 0.44336,0.0684 0.15775,0 0.34825,-0.022 0.57031,-0.0664 l 0.0273,-0.006 v -0.0293 c 0,-0.0115 -10e-4,-0.0305 -0.004,-0.0703 -0.003,-0.0399 -0.006,-0.0979 -0.0117,-0.17188 -0.011,-0.14753 -0.0288,-0.36293 -0.0508,-0.64648 v -0.002 -0.22852 c 0,-0.28273 0.047,-0.49083 0.13477,-0.625 0.0877,-0.13417 0.21429,-0.19922 0.39258,-0.19922 0.0622,0 0.1365,0.01 0.22265,0.0312 l 0.0312,0.008 0.0117,-0.0312 c 0.10949,-0.32846 0.22872,-0.57838 0.35742,-0.75 l 0.0254,-0.0332 -0.0351,-0.0195 c -0.24534,-0.13382 -0.44872,-0.20313 -0.61328,-0.20312 z m 0,0.0723 c 0.13637,0 0.32464,0.0667 0.54687,0.18359 -0.12215,0.17228 -0.23429,0.40342 -0.33594,0.70118 -0.077,-0.0175 -0.14934,-0.0312 -0.21093,-0.0312 -0.19654,0 -0.35149,0.0799 -0.45118,0.23242 -0.0997,0.15246 -0.14648,0.37353 -0.14648,0.66406 v 0.23242 0.002 c 0.0221,0.28477 0.0378,0.50059 0.0488,0.64843 0.006,0.0739 0.0109,0.13031 0.0137,0.16993 0.001,0.021 0.001,0.0237 0.002,0.0352 -0.20396,0.0392 -0.38244,0.0605 -0.52539,0.0605 -0.16361,0 -0.29059,-0.0214 -0.39258,-0.0586 0.0415,-0.33855 0.0645,-0.66868 0.0645,-0.99023 0,-0.56095 -0.0674,-1.14578 -0.19336,-1.74805 0.40398,0.002 0.7338,0.021 0.98242,0.0606 v 0.35547 0.008 l 0.0703,0.008 c 0.0431,-0.1832 0.11001,-0.31704 0.19727,-0.40429 0.0873,-0.0873 0.19456,-0.12891 0.33008,-0.12891 z"
           id="path140" />
      </g>
      <g
         id="g89"
         transform="translate(-1.1221662,-10.567066)"
         style="stroke-width:0.0715971;stroke-dasharray:none">
        <path
           style="-inkscape-font-specification:'Cabold Comic';stroke-width:0.0715971;stroke-dasharray:none"
           d="m 109.43708,129.04476 q 0.66146,0 1.05833,0.0661 v 0.39688 q 0.1323,-0.56224 0.56224,-0.56224 0.23151,0 0.59531,0.19844 -0.19843,0.26458 -0.3638,0.76067 -0.13229,-0.0331 -0.23151,-0.0331 -0.56224,0 -0.56224,0.8599 v 0.23151 q 0.0661,0.85438 0.0661,0.88745 -0.33073,0.0662 -0.56224,0.0662 -0.26458,0 -0.42995,-0.0662 0.0661,-0.52365 0.0661,-1.01974 0,-0.8599 -0.19844,-1.78594 z"
           id="path51" />
        <path
           style="fill:#ff0000;stroke-width:0.0715971;stroke-dasharray:none;paint-order:fill markers stroke"
           d="m 109.92673,131.55072 c -0.009,-0.014 -7.9e-4,-0.20367 0.0174,-0.42155 0.0402,-0.48097 0.0108,-1.17325 -0.0743,-1.75169 -0.0348,-0.2364 -0.0633,-0.44097 -0.0634,-0.45461 -1.9e-4,-0.0305 0.26863,-0.032 0.6065,-0.003 l 0.25296,0.0214 v 0.17699 c 0,0.16262 0.006,0.17699 0.076,0.17699 0.0579,0 0.0865,-0.0295 0.12021,-0.12398 0.12828,-0.3599 0.38676,-0.45824 0.76968,-0.29284 l 0.12281,0.053 -0.13108,0.27105 c -0.0721,0.14909 -0.13108,0.28877 -0.13108,0.31041 0,0.0253 -0.0799,0.0439 -0.22391,0.052 -0.27385,0.0155 -0.39847,0.0932 -0.50888,0.31739 -0.0744,0.15105 -0.0771,0.18436 -0.074,0.90644 0.003,0.73458 0.002,0.75001 -0.0661,0.76825 -0.10453,0.0281 -0.6748,0.0232 -0.69278,-0.006 z"
           id="path12" />
      </g>
    </g>
    <g
       id="g88"
       transform="matrix(4.1384594,-0.59774411,0.59515695,4.1564494,-411.25544,-346.50843)"
       style="stroke-width:0.0715971;stroke-dasharray:none">
      <path
         id="path48"
         style="-inkscape-font-specification:'Cabold Comic';stroke-width:0.0715971;stroke-dasharray:none"
         d="m 108.16653,129.03925 q 0.22049,-0.0276 0.41617,-0.0276 0.2508,0 0.46026,0.0441 -0.0386,0.48507 -0.0386,1.13826 0,0.35002 0.0331,0.67248 0.0634,0.63941 0.23702,0.99219 -0.0413,-0.003 -0.091,-0.003 -0.19017,0 -0.54019,0.0248 -0.48231,0.0303 -0.60909,0.0303 0.0854,-0.17639 0.0854,-0.44098 -0.19568,0.25908 -0.35829,0.35278 -0.22049,0.12127 -0.47956,0.12127 -0.30868,0 -0.55948,-0.17088 -0.25356,-0.17363 -0.39412,-0.51814 -0.14332,-0.34451 -0.14332,-0.79926 0,-0.678 0.31144,-1.0418 0.31695,-0.36931 0.68075,-0.36931 0.0496,-0.006 0.0992,-0.006 0.16812,0 0.34726,0.0634 0.22876,0.0827 0.50437,0.41616 0.0248,-0.35277 0.0386,-0.47955 z m -0.32246,1.48276 q 0,-0.25355 -0.0992,-0.37758 -0.0992,-0.12402 -0.25907,-0.12402 -0.12953,0 -0.22324,0.12127 -0.0909,0.11851 -0.0909,0.37207 0,0.28938 0.0937,0.41065 0.0937,0.12127 0.23151,0.12127 0.15159,0 0.25081,-0.12402 0.0965,-0.12127 0.0965,-0.39964 z m 0.60358,-2.51078 q 0.0992,0 0.0992,0.0331 0,0.0331 -0.0331,0.0662 -0.46302,0.52917 -0.66146,0.69453 h -0.52917 q 0.26459,-0.52917 0.42995,-0.76068 0.29766,0 0.69453,-0.0331 z" />
      <g
         id="path70"
         style="stroke-width:0.0715971;stroke-dasharray:none">
        <path
           style="color:#000000;-inkscape-font-specification:'Cabold Comic';fill:#f9f9f9;stroke-width:0.0715971;stroke-dasharray:none"
           d="m 108.49068,128.77488 q 0.22049,-0.0276 0.41617,-0.0276 0.2508,0 0.46026,0.0441 -0.0386,0.48507 -0.0386,1.13826 0,0.35002 0.0331,0.67248 0.0634,0.63941 0.23702,0.99219 -0.0413,-0.003 -0.0909,-0.003 -0.19017,0 -0.54019,0.0248 -0.48231,0.0303 -0.60909,0.0303 0.0854,-0.17639 0.0854,-0.44097 -0.19568,0.25907 -0.35829,0.35278 -0.22049,0.12127 -0.47956,0.12127 -0.30868,0 -0.55948,-0.17088 -0.25356,-0.17363 -0.39412,-0.51814 -0.14332,-0.34451 -0.14332,-0.79926 0,-0.678 0.31144,-1.0418 0.31695,-0.36931 0.68075,-0.36931 0.0496,-0.006 0.0992,-0.006 0.16812,0 0.34726,0.0634 0.22876,0.0827 0.50436,0.41617 0.0248,-0.35278 0.0386,-0.47956 z m -0.32246,1.48277 q 0,-0.25356 -0.0992,-0.37758 -0.0992,-0.12402 -0.25907,-0.12402 -0.12954,0 -0.22324,0.12126 -0.091,0.11851 -0.091,0.37207 0,0.28939 0.0937,0.41066 0.0937,0.12127 0.23151,0.12127 0.15159,0 0.25081,-0.12403 0.0965,-0.12127 0.0965,-0.39963 z m 0.60358,-2.51078 q 0.0992,0 0.0992,0.0331 0,0.0331 -0.0331,0.0662 -0.46303,0.52916 -0.66146,0.69453 h -0.52917 q 0.26458,-0.52917 0.42995,-0.76068 0.29765,0 0.69453,-0.0331 z"
           id="path141" />
        <path
           style="color:#000000;-inkscape-font-specification:'Cabold Comic';fill:#1a1a1a;stroke-width:0.0715971;stroke-dasharray:none"
           d="m 108.75781,127.71094 c -0.25828,0.0213 -0.48591,0.0332 -0.67968,0.0332 h -0.0195 l -0.01,0.0156 c -0.1125,0.15749 -0.25681,0.41204 -0.4336,0.76562 l -0.0254,0.0508 h 0.59961 l 0.01,-0.008 c 0.1358,-0.11318 0.35631,-0.34568 0.66406,-0.69727 l 0.002,-0.002 c 0.0252,-0.0259 0.041,-0.0567 0.041,-0.0898 0,-0.0145 -0.006,-0.0293 -0.0156,-0.0391 -0.01,-0.01 -0.0215,-0.0156 -0.0332,-0.0195 -0.0233,-0.008 -0.0509,-0.01 -0.0859,-0.01 h -0.002 z m 0.0137,0.0723 h 0.002 c 9.4e-4,10e-6 0.001,-1e-5 0.002,0 0.0263,3.4e-4 0.0448,0.003 0.0547,0.006 -0.002,0.009 -0.004,0.0177 -0.0176,0.0312 v 0.002 h -0.002 c -0.30467,0.34817 -0.51943,0.57499 -0.64844,0.68359 h -0.45313 c 0.15649,-0.30887 0.28886,-0.5478 0.38868,-0.68945 0.19482,-6e-4 0.41775,-0.0119 0.67382,-0.0332 z m 0.13477,0.92774 c -0.13214,0 -0.27163,0.0107 -0.41992,0.0293 l 0.041,0.0352 -0.0723,-0.006 c -8e-5,6.9e-4 7e-5,0.003 0,0.004 -0.008,0.0736 -0.0201,0.22766 -0.0332,0.4082 -0.16197,-0.18302 -0.31867,-0.32481 -0.4629,-0.37695 -0.12274,-0.0434 -0.24279,-0.0664 -0.35937,-0.0664 -0.0326,0 -0.0651,0.002 -0.0977,0.006 -0.25464,0 -0.49327,0.13147 -0.70898,0.38281 -0.21477,0.25088 -0.32031,0.60698 -0.32031,1.06446 0,0.30692 0.0488,0.57767 0.14648,0.8125 0.0958,0.23469 0.23065,0.41491 0.40625,0.53515 0.17285,0.11777 0.36769,0.17578 0.58008,0.17578 0.1783,0 0.34586,-0.0413 0.49805,-0.125 0.0889,-0.0512 0.18692,-0.16363 0.28515,-0.27929 -0.0103,0.11835 -0.022,0.23656 -0.0625,0.32031 l -0.0254,0.0508 h 0.0586 c 0.0874,0 0.28959,-0.009 0.61132,-0.0293 0.23289,-0.0165 0.41189,-0.0254 0.53711,-0.0254 0.0323,0 0.0614,0.002 0.0879,0.004 l 0.0625,0.004 -0.0273,-0.0566 c -0.11273,-0.22904 -0.19236,-0.55674 -0.23438,-0.98046 -0.0219,-0.21367 -0.0312,-0.43575 -0.0312,-0.66797 0,-0.43476 0.0115,-0.81266 0.0371,-1.13477 l 0.004,-0.0312 -0.0312,-0.008 c -0.14246,-0.03 -0.29945,-0.0449 -0.46875,-0.0449 z m 0,0.0723 c 0.15446,0 0.29412,0.0158 0.42383,0.041 -0.0243,0.31796 -0.0371,0.68276 -0.0371,1.10547 0,0.23447 0.011,0.4595 0.0332,0.67578 0.0403,0.40638 0.11988,0.71325 0.22852,0.95117 -0.0156,-5.1e-4 -0.03,-0.002 -0.0469,-0.002 -0.12833,0 -0.30916,0.009 -0.54297,0.0254 -0.29958,0.0188 -0.47291,0.028 -0.56445,0.0293 0.0468,-0.11544 0.0801,-0.24481 0.0801,-0.40429 v -0.10547 l -0.0644,0.084 c -0.12883,0.17057 -0.24624,0.2853 -0.34766,0.34375 -0.14181,0.078 -0.29576,0.11719 -0.46289,0.11719 -0.19918,0 -0.37751,-0.0559 -0.53906,-0.16601 -0.16248,-0.11126 -0.28921,-0.27731 -0.38086,-0.50196 -0.0934,-0.22451 -0.14063,-0.48575 -0.14063,-0.78515 0,-0.44652 0.10225,-0.78535 0.30274,-1.01954 0.20689,-0.24106 0.42387,-0.35546 0.65429,-0.35546 h 0.002 0.002 c 0.0316,-0.004 0.0621,-0.006 0.0937,-0.006 0.10758,0 0.21983,0.0195 0.33594,0.0605 0.14236,0.0515 0.30672,0.18657 0.48828,0.40625 l 0.0586,0.0684 0.006,-0.0898 c 0.0155,-0.21969 0.0262,-0.36009 0.0352,-0.44727 0.13493,-0.0159 0.26263,-0.0254 0.38281,-0.0254 z m -1.0957,0.9375 c -0.0975,0 -0.18461,0.0476 -0.25196,0.13477 -0.0682,0.0888 -0.0996,0.22121 -0.0996,0.39453 0,0.19679 0.0307,0.33989 0.10157,0.43164 0.0677,0.0876 0.15739,0.13477 0.25976,0.13477 0.11083,0 0.2076,-0.0471 0.2793,-0.13672 0.0726,-0.0913 0.10351,-0.23217 0.10352,-0.42188 v -0.0352 h -0.01 c -0.005,-0.15205 -0.0286,-0.28137 -0.0957,-0.36524 -0.072,-0.09 -0.17128,-0.13672 -0.28711,-0.13672 z m 0,0.0703 c 0.0973,0 0.17019,0.036 0.23047,0.11132 0.0587,0.0734 0.0918,0.1911 0.0918,0.35547 0,0.18144 -0.0338,0.30655 -0.0898,0.37696 -0.0606,0.0757 -0.13136,0.11132 -0.22266,0.11132 -0.0814,0 -0.14585,-0.0333 -0.20312,-0.10742 -0.054,-0.0699 -0.0859,-0.19961 -0.0859,-0.38867 0,-0.16476 0.0308,-0.28234 0.084,-0.35156 0.0576,-0.0745 0.12013,-0.10742 0.19532,-0.10742 z"
           id="path142" />
      </g>
      <path
         id="path13"
         style="fill:#0a8fff;stroke-width:0.0715971;stroke-dasharray:none;paint-order:fill markers stroke"
         d="m 107.83799,128.2451 c 0.20321,-0.38358 0.19309,-0.37633 0.50987,-0.36513 l 0.27487,0.01 -0.27083,0.28929 -0.27082,0.28929 h -0.18066 -0.18067 z m -0.61436,3.31846 c -0.38522,-0.13766 -0.62254,-0.5131 -0.68789,-1.08822 -0.0617,-0.54299 0.0526,-0.99363 0.32774,-1.29211 0.18382,-0.19943 0.36727,-0.28515 0.61025,-0.28515 0.32486,0 0.43827,0.0517 0.70224,0.32024 0.13074,0.133 0.24447,0.24181 0.25272,0.24181 0.008,0 0.0256,-0.1344 0.0387,-0.29867 l 0.0236,-0.29868 0.33529,0.009 0.33529,0.009 0.005,0.79326 c 0.005,0.83775 0.0434,1.2676 0.14394,1.63002 0.0337,0.12141 0.0585,0.22274 0.0552,0.22519 -0.003,0.002 -0.21641,0.0148 -0.4736,0.0274 l -0.4676,0.023 0.0177,-0.28317 c 0.0125,-0.20039 0.007,-0.28317 -0.0201,-0.28317 -0.0207,0 -0.0377,0.0127 -0.0377,0.0283 0,0.0155 -0.0893,0.12575 -0.19849,0.24489 -0.14641,0.15979 -0.23904,0.23044 -0.35304,0.26928 -0.1846,0.0629 -0.44474,0.0659 -0.60944,0.007 z m 0.78215,-0.78921 c 0.0936,-0.0866 0.12188,-0.14336 0.14579,-0.2928 0.0558,-0.34889 -0.0188,-0.61065 -0.20665,-0.72519 -0.19495,-0.11887 -0.4376,-0.056 -0.53871,0.1395 -0.13447,0.26003 -0.0843,0.75516 0.0915,0.90308 0.1498,0.12605 0.35604,0.11607 0.50807,-0.0246 z" />
    </g>
    <g
       id="g90"
       transform="matrix(4.1810355,0,0,4.1992106,-338.69665,-414.83702)"
       style="stroke-width:0.0715971">
      <path
         id="path158"
         style="-inkscape-font-specification:'Cabold Comic'"
         d="m 111.64194,130.52201 q 0,-1.52135 1.38906,-1.52135 h 0.0661 q 1.35599,0.0331 1.35599,1.32292 v 0.16536 q -0.0992,1.42214 -1.45521,1.45521 -1.35599,0 -1.35599,-1.35599 z m 1.03904,0.15434 q 0,0.36381 0.34727,0.36381 0.35002,-0.0331 0.37482,-0.36381 v -0.19843 q 0,-0.4961 -0.34726,-0.4961 -0.37483,0.0331 -0.37483,0.62839 z" />
      <g
         id="path74">
        <path
           style="color:#000000;-inkscape-font-specification:'Cabold Comic';fill:#f9f9f9;-inkscape-stroke:none"
           d="m 111.96609,130.25765 q 0,-1.52135 1.38906,-1.52135 h 0.0662 q 1.35598,0.0331 1.35598,1.32291 v 0.16537 q -0.0992,1.42213 -1.4552,1.45521 -1.35599,0 -1.35599,-1.35599 z m 1.03904,0.15434 q 0,0.3638 0.34726,0.3638 0.35003,-0.0331 0.37483,-0.3638 v -0.19844 q 0,-0.49609 -0.34726,-0.49609 -0.37483,0.0331 -0.37483,0.62839 z"
           id="path157" />
        <path
           style="color:#000000;-inkscape-font-specification:'Cabold Comic';fill:#1a1a1a;-inkscape-stroke:none"
           d="m 113.35547,128.70117 c -0.46956,0 -0.82884,0.12829 -1.06836,0.39063 -0.23952,0.26233 -0.35742,0.65345 -0.35742,1.16601 v 0.0664 c 0,0.45796 0.11517,0.80658 0.34961,1.04101 0.23443,0.23444 0.585,0.34961 1.04297,0.34961 0.45824,-0.0112 0.8162,-0.14042 1.0664,-0.39062 0.25021,-0.25021 0.39037,-0.61798 0.42383,-1.09766 v -0.16797 c 0,-0.4362 -0.11529,-0.77139 -0.34961,-1 -0.23432,-0.2286 -0.58335,-0.34625 -1.04101,-0.35742 z m 0,0.0703 h 0.0664 c 0.44512,0.0112 0.77489,0.12591 0.99218,0.33789 0.21767,0.21237 0.32813,0.52556 0.32813,0.94922 v 0.16602 c -0.033,0.46726 -0.16982,0.81434 -0.4043,1.04883 -0.23446,0.23446 -0.57099,0.35985 -1.01562,0.37109 -0.44603,0 -0.77463,-0.11056 -0.99219,-0.32812 -0.21756,-0.21756 -0.32813,-0.54616 -0.32813,-0.99219 v -0.0664 c 0,-0.50167 0.1144,-0.8724 0.33789,-1.11719 0.2235,-0.24478 0.55914,-0.36914 1.01563,-0.36914 z m 0.0215,0.91016 c -0.13431,0.0119 -0.24102,0.0781 -0.30859,0.19141 -0.0676,0.11327 -0.0996,0.27047 -0.0996,0.47265 v 0.0664 c 0,0.12696 0.0315,0.22762 0.0977,0.29687 0.0661,0.0693 0.16315,0.10352 0.28515,0.10352 h 0.002 l 0.002,-0.002 c 0.1222,-0.0116 0.22133,-0.0496 0.29101,-0.11719 0.0697,-0.0676 0.10846,-0.16285 0.11719,-0.2793 v -0.20117 c 0,-0.16954 -0.0294,-0.30071 -0.0937,-0.39258 -0.0643,-0.0919 -0.16478,-0.13867 -0.28906,-0.13867 h -0.002 z m 0.004,0.0723 c 0.10723,0 0.17902,0.0339 0.23047,0.10742 0.0515,0.0735 0.0801,0.19037 0.0801,0.35156 v 0.19727 c -0.008,0.10401 -0.0405,0.17879 -0.0957,0.23242 -0.0549,0.0533 -0.13416,0.0869 -0.24414,0.0976 -0.1095,0 -0.18473,-0.0281 -0.23437,-0.0801 -0.0496,-0.052 -0.0762,-0.13248 -0.0762,-0.24805 v -0.0664 c 0,-0.19467 0.0305,-0.33935 0.0879,-0.43554 0.057,-0.0957 0.1374,-0.14566 0.25195,-0.15625 z"
           id="path156" />
      </g>
      <path
         style="fill:#0a8fff;paint-order:fill markers stroke"
         d="m 112.80653,131.57527 c -0.37944,-0.0955 -0.64485,-0.33885 -0.75486,-0.69208 -0.0789,-0.25316 -0.0938,-0.83867 -0.0284,-1.10902 0.0546,-0.22562 0.21919,-0.53076 0.34254,-0.63511 0.35165,-0.2975 1.04617,-0.37548 1.57631,-0.17699 0.25444,0.0953 0.40691,0.23484 0.5303,0.48549 0.0953,0.19349 0.10807,0.254 0.1205,0.56915 0.0302,0.76458 -0.24373,1.29024 -0.77949,1.49599 -0.21269,0.0817 -0.78878,0.11748 -1.00693,0.0626 z m 0.68798,-0.74613 c 0.17927,-0.0851 0.25935,-0.28954 0.23761,-0.60671 -0.0202,-0.2947 -0.084,-0.44252 -0.2218,-0.51377 -0.22437,-0.11602 -0.48812,-0.0174 -0.5974,0.22329 -0.095,0.20918 -0.0916,0.6756 0.006,0.79937 0.0389,0.0494 0.10211,0.10257 0.14051,0.11808 0.11323,0.0457 0.3161,0.0363 0.43532,-0.0203 z"
         id="path155" />
    </g>
    <g
       id="g91"
       transform="matrix(4.1515532,0.49779923,-0.49564465,4.1696002,-270.2461,-470.07321)"
       style="stroke-width:0.0715971">
      <path
         style="-inkscape-font-specification:'Cabold Comic'"
         d="m 114.64606,131.08425 q 0.38585,-0.091 0.90951,-0.0992 0.0661,0.22048 0.28387,0.23702 0.0331,0.006 0.0689,0.006 0.113,0 0.22049,-0.0772 0.12402,-0.0992 0.12402,-0.20119 0,-0.0358 -0.006,-0.0689 -0.008,-0.16536 -0.2508,-0.19292 h -0.37483 q -0.75241,-0.0579 -0.79375,-0.66146 v -0.13229 q 0.16537,-0.92604 1.12448,-0.92604 0.95911,0 1.25677,0.79375 -0.62838,0.13229 -0.82682,0.13229 h -0.022 q -0.0496,0 -0.0772,-0.0331 -0.10749,-0.22049 -0.32797,-0.22049 -0.0331,0 -0.0689,0.006 -0.14882,0.0661 -0.14882,0.21498 0,0.0469 0.0221,0.0992 0.0854,0.14607 0.78823,0.23151 0.76068,0.0992 0.76068,0.76067 0,0.95912 -1.25677,0.99219 h -0.0992 q -1.19062,0 -1.30638,-0.8599 z"
         id="path54" />
      <g
         id="path76">
        <path
           style="color:#000000;-inkscape-font-specification:'Cabold Comic';fill:#f9f9f9;-inkscape-stroke:none"
           d="m 114.97021,130.81989 q 0.38585,-0.0909 0.9095,-0.0992 0.0661,0.22049 0.28388,0.23702 0.0331,0.006 0.0689,0.006 0.113,0 0.22049,-0.0772 0.12402,-0.0992 0.12402,-0.2012 0,-0.0358 -0.006,-0.0689 -0.008,-0.16536 -0.2508,-0.19292 h -0.37483 q -0.75241,-0.0579 -0.79375,-0.66146 v -0.13229 q 0.16537,-0.92604 1.12448,-0.92604 0.95911,0 1.25677,0.79374 -0.62839,0.1323 -0.82682,0.1323 h -0.0221 q -0.0496,0 -0.0772,-0.0331 -0.10749,-0.22048 -0.32797,-0.22048 -0.0331,0 -0.0689,0.006 -0.14882,0.0661 -0.14882,0.21497 0,0.0469 0.022,0.0992 0.0854,0.14607 0.78824,0.23151 0.76068,0.0992 0.76068,0.76068 0,0.95911 -1.25677,0.99219 h -0.0992 q -1.19062,0 -1.30638,-0.8599 z"
           id="path159" />
        <path
           style="color:#000000;-inkscape-font-specification:'Cabold Comic';fill:#1a1a1a;-inkscape-stroke:none"
           d="m 116.27539,128.66797 c -0.32546,0 -0.58808,0.0795 -0.7832,0.24023 -0.19513,0.16069 -0.31883,0.40027 -0.375,0.71485 l -0.002,0.004 v 0.13672 c 0.0143,0.20854 0.0924,0.37548 0.23243,0.49219 0.14005,0.11671 0.34018,0.18346 0.5957,0.20312 h 0.37695 c 0.0744,0.009 0.12858,0.0289 0.16211,0.0547 0.0343,0.0264 0.0505,0.0571 0.0527,0.10352 v 0.004 0.002 c 0.004,0.0198 0.006,0.0406 0.006,0.0625 0,0.0535 -0.0333,0.11143 -0.11133,0.17382 -0.066,0.0468 -0.13088,0.0684 -0.19727,0.0684 -0.0219,0 -0.0427,-0.002 -0.0625,-0.006 h -0.002 -0.002 c -0.13349,-0.0101 -0.21093,-0.0741 -0.25196,-0.21093 l -0.008,-0.0273 -0.0273,0.002 c -0.35103,0.006 -0.6555,0.0382 -0.91602,0.0996 l -0.0156,0.004 -0.008,0.0117 -0.008,0.0117 0.002,0.0137 c 0.0397,0.29468 0.17432,0.52112 0.40039,0.66992 0.22608,0.14881 0.54023,0.22071 0.94141,0.22071 h 0.0996 0.002 c 0.42347,-0.0112 0.74463,-0.10112 0.96289,-0.27344 0.21827,-0.17232 0.32813,-0.42639 0.32813,-0.75391 0,-0.22735 -0.0671,-0.41275 -0.20117,-0.54687 -0.13412,-0.13412 -0.33318,-0.21628 -0.5918,-0.25 -0.23315,-0.0283 -0.41483,-0.062 -0.54297,-0.0996 -0.12724,-0.0374 -0.19774,-0.0837 -0.2168,-0.11524 -5e-5,-1.4e-4 -0.002,1.5e-4 -0.002,0 -0.0119,-0.0295 -0.0156,-0.0557 -0.0156,-0.0801 0,-0.0856 0.0386,-0.13987 0.125,-0.17969 0.0192,-0.003 0.0391,-0.006 0.0566,-0.006 0.13505,0 0.22748,0.0628 0.29492,0.20117 l 0.002,0.004 0.004,0.002 c 0.0252,0.0302 0.0625,0.0469 0.10351,0.0469 h 0.0215 c 0.14024,0 0.41627,-0.0445 0.83594,-0.13282 l 0.0391,-0.01 -0.0137,-0.0391 c -0.20288,-0.54099 -0.64174,-0.8164 -1.29102,-0.8164 z m 0,0.0723 c 0.60854,0 0.99449,0.24741 1.19531,0.73047 -0.37279,0.0767 -0.64956,0.12305 -0.76562,0.12305 h -0.0215 c -0.0251,0 -0.0372,-0.006 -0.0488,-0.0195 l 0.004,0.006 c -0.0759,-0.15565 -0.20045,-0.24024 -0.35937,-0.24024 -0.0242,0 -0.0505,0.004 -0.0762,0.008 h -0.004 l -0.004,0.002 c -0.10832,0.0481 -0.16992,0.13687 -0.16992,0.24805 0,0.0369 0.009,0.0749 0.0254,0.11328 v 0.002 l 0.002,0.002 c 0.0385,0.0658 0.12516,0.10695 0.25977,0.14649 0.13461,0.0395 0.31928,0.0729 0.55469,0.10156 0.2485,0.0324 0.42938,0.11103 0.54883,0.23047 0.11944,0.11944 0.17968,0.28246 0.17968,0.49609 0,0.31189 -0.10012,0.54081 -0.30078,0.69922 -0.20065,0.15841 -0.50555,0.24495 -0.91992,0.25586 h -0.0996 c -0.39256,0 -0.69296,-0.0712 -0.90234,-0.20898 -0.19818,-0.13045 -0.30362,-0.32985 -0.34766,-0.58594 0.24425,-0.0538 0.52432,-0.0883 0.85156,-0.0937 0.0531,0.12878 0.14026,0.22421 0.2793,0.23633 6.2e-4,1.1e-4 10e-4,-1.1e-4 0.002,0 0.0237,0.004 0.049,0.008 0.0742,0.008 0.0835,0 0.1657,-0.0291 0.24219,-0.084 v -0.002 c 0.0874,-0.0699 0.13867,-0.146 0.13867,-0.22851 0,-0.0252 -0.004,-0.0505 -0.008,-0.0742 -0.004,-0.0619 -0.0319,-0.11727 -0.0801,-0.1543 -0.0493,-0.038 -0.11627,-0.0587 -0.20117,-0.0684 l -0.002,-0.002 h -0.37696 c -0.24451,-0.0192 -0.42677,-0.0822 -0.55078,-0.18555 -0.12408,-0.1034 -0.1934,-0.24667 -0.20703,-0.43945 v -0.002 -0.12305 c 0.0541,-0.30279 0.17186,-0.52584 0.35156,-0.67383 0.1797,-0.14799 0.42239,-0.22266 0.73633,-0.22266 z"
           id="path160" />
      </g>
      <path
         style="fill:#ff0000;paint-order:fill markers stroke"
         d="m 115.66096,131.5585 c -0.21721,-0.0606 -0.36355,-0.1477 -0.48962,-0.29128 -0.10429,-0.11878 -0.19498,-0.30964 -0.16255,-0.34208 0.032,-0.032 0.31493,-0.0722 0.52296,-0.0744 0.16462,-0.002 0.1994,0.01 0.28431,0.0948 0.32213,0.32213 0.89359,0.007 0.73647,-0.40668 -0.0494,-0.12988 -0.15519,-0.1648 -0.56524,-0.18653 -0.31892,-0.0169 -0.40589,-0.0335 -0.52799,-0.10087 -0.27671,-0.15264 -0.36814,-0.47101 -0.23549,-0.82009 0.17501,-0.46059 0.59739,-0.67221 1.19252,-0.59748 0.27977,0.0351 0.4721,0.1134 0.63923,0.26014 0.12387,0.10876 0.27565,0.32428 0.2479,0.35202 -0.0222,0.0222 -0.51159,0.11331 -0.60886,0.11331 -0.0508,0 -0.1234,-0.0439 -0.1911,-0.11572 -0.0972,-0.10304 -0.12773,-0.11572 -0.27881,-0.11572 -0.18863,0 -0.28365,0.0645 -0.32236,0.21871 -0.0609,0.24246 0.13245,0.37309 0.68168,0.46067 0.57133,0.0911 0.75978,0.20288 0.84682,0.50229 0.1245,0.42824 -0.11472,0.86551 -0.55586,1.01606 -0.24327,0.083 -0.96447,0.10256 -1.21401,0.0329 z"
         id="path15" />
    </g>
    <g
       id="g92"
       transform="matrix(4.1719985,0.2759429,-0.27474856,4.1901343,-301.40258,-446.99342)"
       style="stroke-width:0.0715971">
      <path
         id="path55"
         style="-inkscape-font-specification:'Cabold Comic'"
         d="m 117.78247,129.04476 q 0.26459,-0.0992 0.4961,-0.0992 0.26458,0 0.49609,0.0992 -0.0992,0.52917 -0.0992,1.28984 0,0.66146 0.0661,1.48828 -0.23151,0.0661 -0.52917,0.0661 -0.29765,0 -0.62838,-0.0661 0.19843,-1.68672 0.19843,-2.44739 z m 1.11346,-1.18236 q 0.0992,0 0.0992,0.0331 0,0.0331 -0.0331,0.0661 -0.46302,0.52917 -0.66145,0.69453 h -0.52917 q 0.26458,-0.52916 0.42995,-0.76067 0.29765,0 0.69453,-0.0331 z" />
      <g
         id="path77">
        <path
           style="color:#000000;-inkscape-font-specification:'Cabold Comic';fill:#f9f9f9;-inkscape-stroke:none"
           d="m 118.10662,128.7804 q 0.26459,-0.0992 0.4961,-0.0992 0.26458,0 0.49609,0.0992 -0.0992,0.52916 -0.0992,1.28984 0,0.66146 0.0662,1.48828 -0.23151,0.0661 -0.52917,0.0661 -0.29766,0 -0.62838,-0.0661 0.19843,-1.68672 0.19843,-2.4474 z m 1.11346,-1.18236 q 0.0992,0 0.0992,0.0331 0,0.0331 -0.0331,0.0661 -0.46302,0.52916 -0.66146,0.69453 h -0.52916 q 0.26458,-0.52917 0.42995,-0.76068 0.29765,0 0.69453,-0.0331 z"
           id="path161" />
        <path
           style="color:#000000;-inkscape-font-specification:'Cabold Comic';fill:#1a1a1a;-inkscape-stroke:none"
           d="m 119.23633,127.56055 -0.0156,0.002 h -0.004 c -0.26385,0.022 -0.4943,0.0332 -0.69141,0.0332 h -0.0176 l -0.0117,0.0137 c -0.11249,0.15748 -0.25485,0.41204 -0.43164,0.76562 l -0.0273,0.0527 h 0.59961 l 0.0117,-0.008 c 0.13581,-0.11318 0.35437,-0.34568 0.66211,-0.69726 l 0.002,-0.002 c 0.0252,-0.0258 0.043,-0.0567 0.043,-0.0898 0,-0.0145 -0.008,-0.0293 -0.0176,-0.0391 -0.01,-0.01 -0.0196,-0.0156 -0.0312,-0.0195 -0.018,-0.006 -0.0419,-0.007 -0.0664,-0.008 z m -0.0332,0.0742 h 0.0176 c 0.0292,0 0.048,0.003 0.0586,0.006 -0.002,0.009 -0.004,0.0175 -0.0176,0.0312 h -0.002 v 0.002 c -0.30377,0.34716 -0.51928,0.57265 -0.64844,0.68164 h -0.45508 c 0.15673,-0.30922 0.29084,-0.55016 0.39063,-0.69141 0.18988,-6.4e-4 0.4083,-0.009 0.65625,-0.0293 z m -0.59961,1.00976 c -0.15946,0 -0.33016,0.0342 -0.50977,0.10156 l -0.0234,0.01 v 0.0254 0.33008 c 0,0.504 -0.065,1.3195 -0.19726,2.44336 l -0.004,0.0332 0.0312,0.006 c 0.2225,0.0445 0.43563,0.0664 0.63672,0.0664 0.20109,0 0.38083,-0.0212 0.53906,-0.0664 l 0.0273,-0.01 -0.002,-0.0293 c -0.0441,-0.55046 -0.0664,-1.0446 -0.0664,-1.48438 0,-0.50556 0.034,-0.93348 0.0996,-1.2832 l 0.004,-0.0273 -0.0254,-0.0117 c -0.15888,-0.0681 -0.3289,-0.10352 -0.50976,-0.10352 z m 0,0.0723 c 0.16425,0 0.31496,0.0332 0.45898,0.0918 -0.0631,0.35021 -0.0996,0.76681 -0.0996,1.26172 0,0.43231 0.0222,0.91977 0.0644,1.45703 -0.14436,0.0383 -0.30549,0.0605 -0.49023,0.0605 -0.18653,0 -0.3847,-0.0209 -0.5918,-0.0605 0.1286,-1.10028 0.19727,-1.91308 0.19727,-2.41601 v -0.30078 c 0.16375,-0.0588 0.31888,-0.0937 0.46094,-0.0937 z"
           id="path162" />
      </g>
      <path
         id="path17"
         style="fill:#0a8fff;paint-order:fill markers stroke"
         d="m 118.18376,128.28433 c 0.0459,-0.11965 0.29321,-0.51542 0.32878,-0.52617 0.0876,-0.0265 0.55109,-0.0476 0.55061,-0.0251 -2.6e-4,0.0134 -0.12542,0.15456 -0.27807,0.31367 l -0.27757,0.28929 h -0.17179 c -0.14223,0 -0.16839,-0.009 -0.15196,-0.0517 z m -0.0185,3.26339 c -0.10315,-0.0118 -0.1981,-0.0321 -0.21102,-0.0451 -0.0129,-0.0129 0.009,-0.34758 0.0497,-0.74371 0.0403,-0.39612 0.0817,-0.98423 0.092,-1.3069 l 0.0187,-0.58666 0.11903,-0.0331 c 0.15529,-0.0431 0.4631,-0.0426 0.58827,0.001 l 0.0989,0.0345 -0.0346,0.18869 c -0.0397,0.2165 -0.0486,2.02044 -0.0113,2.27739 0.0215,0.14813 0.017,0.17337 -0.0338,0.18809 -0.11302,0.0327 -0.4902,0.0471 -0.67601,0.0257 z" />
    </g>
    <g
       id="g93"
       transform="matrix(4.1577867,-0.44221772,0.4403037,4.1758608,-392.80291,-356.66764)"
       style="stroke-width:0.0715971">
      <path
         style="-inkscape-font-specification:'Cabold Comic'"
         d="m 120.64328,128.05257 q -0.0551,0.59807 -0.0551,1.05007 v 0.0413 h 0.24804 q 0.19844,-0.0331 0.29766,-0.0331 -0.13229,0.65044 -0.13229,0.77446 v 0.0193 h -0.42995 l -0.0386,0.95912 q 0.0331,0.33073 0.22599,0.33073 0.13781,0 0.30868,-0.0661 0.0992,0.29766 0.0992,0.52917 0,0.0992 -0.0331,0.19843 -0.29766,0.0331 -0.52917,0.0331 -0.7276,0 -0.92604,-0.46302 -0.0661,-0.16537 -0.0661,-0.95912 v -0.56224 h -0.39688 q -0.13229,-0.33072 -0.13229,-0.76067 h 0.56224 v -0.52917 q 0.0331,-0.16536 0.9977,-0.56224 z"
         id="path57" />
      <g
         id="path79">
        <path
           style="color:#000000;-inkscape-font-specification:'Cabold Comic';fill:#f9f9f9;-inkscape-stroke:none"
           d="m 120.96743,127.78821 q -0.0551,0.59807 -0.0551,1.05006 v 0.0413 h 0.24804 q 0.19844,-0.0331 0.29766,-0.0331 -0.13229,0.65043 -0.13229,0.77446 v 0.0193 h -0.42995 l -0.0386,0.95911 q 0.0331,0.33073 0.226,0.33073 0.13781,0 0.30868,-0.0661 0.0992,0.29765 0.0992,0.52916 0,0.0992 -0.0331,0.19844 -0.29766,0.0331 -0.52917,0.0331 -0.7276,0 -0.92604,-0.46302 -0.0661,-0.16536 -0.0661,-0.95911 v -0.56224 h -0.39688 q -0.13229,-0.33073 -0.13229,-0.76068 h 0.56224 v -0.52916 q 0.0331,-0.16537 0.9977,-0.56224 z"
           id="path163" />
        <path
           style="color:#000000;-inkscape-font-specification:'Cabold Comic';fill:#1a1a1a;-inkscape-stroke:none"
           d="m 121.00781,127.73242 -0.0547,0.0234 c -0.32228,0.13259 -0.56578,0.24483 -0.73438,0.33984 -0.0843,0.0475 -0.15016,0.0913 -0.19727,0.13086 -0.0471,0.0395 -0.0774,0.0746 -0.0859,0.11719 l -0.002,0.004 v 0.49609 h -0.5625 v 0.0352 c 0,0.2903 0.0446,0.54993 0.13477,0.77539 l 0.01,0.0215 h 0.38476 v 0.52734 c 0,0.26508 0.006,0.47747 0.0176,0.63868 0.0111,0.1612 0.0251,0.2697 0.0508,0.33398 h 0.002 c 0.0693,0.16162 0.18661,0.28471 0.34766,0.36524 0.16105,0.0805 0.365,0.11914 0.61133,0.11914 0.15604,0 0.33375,-0.011 0.5332,-0.0332 l 0.0215,-0.002 0.008,-0.0215 c 0.0232,-0.0696 0.0352,-0.14083 0.0352,-0.21094 0,-0.15945 -0.0345,-0.33799 -0.10156,-0.53906 l -0.0117,-0.0371 -0.0352,0.0137 c -0.1109,0.0429 -0.20878,0.0644 -0.29493,0.0644 -0.0541,0 -0.0927,-0.0191 -0.125,-0.0664 -0.0323,-0.0473 -0.0557,-0.1256 -0.0664,-0.23242 l 0.0371,-0.91992 h 0.43164 v -0.0547 c 0,-0.035 0.0113,-0.12155 0.0332,-0.25 0.0219,-0.12845 0.0536,-0.30098 0.0977,-0.51757 l 0.01,-0.043 h -0.043 c -0.0688,0 -0.16934,0.0118 -0.29882,0.0332 h -0.21289 v -0.006 c 0,-0.29987 0.02,-0.64898 0.0566,-1.04687 z m -0.0801,0.11328 c -0.0327,0.37128 -0.0508,0.70684 -0.0508,0.99219 v 0.0781 h 0.28711 l 0.002,-0.002 c 0.11124,-0.0186 0.18609,-0.0246 0.24804,-0.0273 -0.0383,0.19017 -0.0697,0.35469 -0.0898,0.47265 -0.0207,0.12102 -0.0318,0.19503 -0.0332,0.24415 h -0.42969 l -0.0391,0.99609 v 0.004 c 0.0114,0.11367 0.0351,0.20071 0.0781,0.26367 0.043,0.063 0.10906,0.0996 0.18359,0.0996 0.0851,0 0.1796,-0.0261 0.2793,-0.0606 0.0576,0.18137 0.0918,0.34611 0.0918,0.48633 0,0.055 -0.011,0.11057 -0.0273,0.16601 -0.18578,0.0199 -0.35282,0.0312 -0.49804,0.0312 -0.23874,0 -0.43245,-0.0395 -0.58008,-0.11328 -0.14763,-0.0738 -0.25143,-0.18106 -0.31445,-0.32812 -0.0184,-0.046 -0.036,-0.154 -0.0469,-0.3125 -0.0109,-0.1585 -0.0156,-0.36873 -0.0156,-0.63282 v -0.59765 h -0.4043 c -0.0772,-0.20043 -0.11517,-0.43174 -0.11914,-0.68945 h 0.55664 v -0.56055 c 0.003,-0.0131 0.0221,-0.0403 0.0625,-0.0742 0.0416,-0.0349 0.10356,-0.0769 0.18555,-0.12305 0.15214,-0.0857 0.38657,-0.19261 0.67382,-0.3125 z"
           id="path164" />
      </g>
      <path
         style="fill:#ff0000;paint-order:fill markers stroke"
         d="m 120.58739,131.54032 c -0.21096,-0.0369 -0.41825,-0.14516 -0.50632,-0.26433 -0.10235,-0.13847 -0.1231,-0.30802 -0.12393,-1.01259 l -7.9e-4,-0.668 -0.22113,-0.01 -0.22112,-0.01 -0.0427,-0.16531 c -0.0235,-0.0909 -0.043,-0.22111 -0.0434,-0.2893 l -5.3e-4,-0.12398 h 0.28103 0.28103 v -0.31184 c 0,-0.30258 0.003,-0.31375 0.0909,-0.37606 0.10498,-0.0742 0.51978,-0.28475 0.62542,-0.31751 l 0.0716,-0.0222 -0.0189,0.5189 -0.0189,0.51889 0.26349,-0.0181 0.26349,-0.0181 -0.0474,0.26921 c -0.0261,0.14807 -0.0526,0.28781 -0.0589,0.31055 -0.008,0.0275 -0.0819,0.0413 -0.22229,0.0413 h -0.21077 l -0.0203,0.54085 c -0.0122,0.32386 -0.007,0.58854 0.0125,0.65974 0.0491,0.17794 0.17277,0.25979 0.374,0.2476 0.15134,-0.009 0.16676,-0.003 0.18842,0.0727 0.013,0.0455 0.0251,0.16077 0.0269,0.25623 l 0.003,0.17358 h -0.12764 c -0.0702,0 -0.19294,0.006 -0.27276,0.0143 -0.0798,0.008 -0.22567,2e-4 -0.32411,-0.017 z"
         id="path18" />
    </g>
    <g
       id="g94"
       transform="matrix(4.1810355,0,0,4.1992106,-338.87046,-415.68339)"
       style="stroke-width:0.0715971">
      <path
         id="path58"
         style="-inkscape-font-specification:'Cabold Comic'"
         d="m 121.44254,130.52201 q 0,-1.52135 1.38906,-1.52135 h 0.0661 q 1.35599,0.0331 1.35599,1.32292 v 0.16536 q -0.0992,1.42214 -1.45521,1.45521 -1.35599,0 -1.35599,-1.35599 z m 1.03904,0.15434 q 0,0.36381 0.34727,0.36381 0.35002,-0.0331 0.37482,-0.36381 v -0.19843 q 0,-0.4961 -0.34726,-0.4961 -0.37483,0.0331 -0.37483,0.62839 z m 1.08314,-2.73402 q 0.0992,0 0.0992,0.0331 0,0.0331 -0.0331,0.0662 -0.46302,0.52916 -0.66145,0.69453 h -0.52917 q 0.26458,-0.52917 0.42995,-0.76068 0.29765,0 0.69453,-0.0331 z" />
      <g
         id="path80">
        <path
           style="color:#000000;-inkscape-font-specification:'Cabold Comic';fill:#f9f9f9;-inkscape-stroke:none"
           d="m 121.76669,130.25765 q 0,-1.52135 1.38906,-1.52135 h 0.0662 q 1.35598,0.0331 1.35598,1.32291 v 0.16537 q -0.0992,1.42213 -1.4552,1.45521 -1.35599,0 -1.35599,-1.35599 z m 1.03904,0.15434 q 0,0.3638 0.34726,0.3638 0.35003,-0.0331 0.37483,-0.3638 v -0.19844 q 0,-0.49609 -0.34726,-0.49609 -0.37483,0.0331 -0.37483,0.62839 z m 1.08314,-2.73402 q 0.0992,0 0.0992,0.0331 0,0.0331 -0.0331,0.0661 -0.46302,0.52917 -0.66146,0.69454 h -0.52916 q 0.26458,-0.52917 0.42995,-0.76068 0.29765,0 0.69453,-0.0331 z"
           id="path165" />
        <path
           style="color:#000000;-inkscape-font-specification:'Cabold Comic';fill:#1a1a1a;-inkscape-stroke:none"
           d="m 123.90234,127.64063 -0.0137,0.002 h -0.002 c -0.26385,0.022 -0.49625,0.0332 -0.69336,0.0332 h -0.0176 l -0.01,0.0137 c -0.1125,0.15749 -0.25681,0.41205 -0.4336,0.76563 l -0.0254,0.0527 h 0.59961 l 0.01,-0.008 c 0.13581,-0.11318 0.35632,-0.34567 0.66406,-0.69727 l 0.002,-0.002 c 0.0252,-0.0258 0.041,-0.0567 0.041,-0.0898 0,-0.0145 -0.006,-0.0293 -0.0156,-0.0391 -0.01,-0.01 -0.0215,-0.0156 -0.0332,-0.0195 -0.0186,-0.006 -0.0429,-0.007 -0.0684,-0.008 z m -0.0273,0.0723 h 0.0137 0.004 c 0.0263,3.3e-4 0.0448,0.005 0.0547,0.008 -0.002,0.009 -0.004,0.0178 -0.0176,0.0312 l -0.002,0.002 c -0.30465,0.34817 -0.51942,0.57304 -0.64843,0.68164 h -0.45313 c 0.15671,-0.30918 0.2889,-0.55018 0.38867,-0.69141 0.1905,-6.4e-4 0.41122,-0.0109 0.66016,-0.0312 z m -0.71875,0.98828 c -0.46955,0 -0.82884,0.12829 -1.06836,0.39063 -0.23952,0.26233 -0.35742,0.65345 -0.35742,1.16601 v 0.0664 c 0,0.45796 0.11517,0.80658 0.34961,1.04101 0.23443,0.23444 0.585,0.34961 1.04297,0.34961 0.45824,-0.0112 0.8162,-0.14042 1.0664,-0.39062 0.25021,-0.25021 0.39037,-0.61798 0.42383,-1.09766 v -0.16797 c 0,-0.4362 -0.11529,-0.77139 -0.34961,-1 -0.23432,-0.2286 -0.58335,-0.34625 -1.04101,-0.35742 z m 0,0.0703 h 0.0664 c 0.44512,0.0112 0.7749,0.12591 0.99218,0.33789 0.21768,0.21237 0.32813,0.52556 0.32813,0.94922 v 0.16602 c -0.0329,0.46726 -0.16982,0.81434 -0.4043,1.04883 -0.23446,0.23446 -0.57099,0.35985 -1.01562,0.37109 -0.44603,0 -0.77463,-0.11056 -0.99219,-0.32812 -0.21756,-0.21756 -0.32813,-0.54616 -0.32813,-0.99219 v -0.0664 c 0,-0.50167 0.1144,-0.8724 0.3379,-1.11719 0.22349,-0.24478 0.55914,-0.36914 1.01562,-0.36914 z m 0.0215,0.91016 c -0.1343,0.0119 -0.24102,0.0781 -0.30859,0.19141 -0.0676,0.11327 -0.0996,0.27047 -0.0996,0.47265 v 0.0664 c 0,0.12696 0.0315,0.22762 0.0977,0.29687 0.0661,0.0693 0.16315,0.10352 0.28515,0.10352 h 0.002 l 0.002,-0.002 c 0.1222,-0.0116 0.22133,-0.0496 0.29102,-0.11719 0.0697,-0.0676 0.10845,-0.16285 0.11718,-0.2793 v -0.20117 c 0,-0.16954 -0.0294,-0.30071 -0.0937,-0.39258 -0.0643,-0.0919 -0.16674,-0.13867 -0.29101,-0.13867 z m 0.004,0.0742 c 0.10545,7.1e-4 0.17954,0.0327 0.23047,0.10547 0.0515,0.0735 0.0801,0.19037 0.0801,0.35156 v 0.19727 c -0.008,0.10401 -0.0404,0.17879 -0.0957,0.23242 -0.0549,0.0533 -0.13416,0.0869 -0.24414,0.0976 -0.1095,0 -0.18473,-0.0281 -0.23437,-0.0801 -0.0496,-0.052 -0.0762,-0.13248 -0.0762,-0.24805 v -0.0664 c 0,-0.19467 0.0305,-0.33935 0.0879,-0.43554 0.0569,-0.0953 0.13804,-0.14348 0.25195,-0.1543 z"
           id="path166" />
      </g>
      <path
         id="path20"
         style="fill:#0a8fff;paint-order:fill markers stroke"
         d="m 122.9548,128.17105 c 0.20964,-0.38472 0.1864,-0.36835 0.50737,-0.35721 l 0.27979,0.01 -0.27731,0.2893 -0.27732,0.28929 h -0.17923 -0.17922 z m -0.37893,3.38686 c -0.23989,-0.0646 -0.35314,-0.12833 -0.50383,-0.28361 -0.21988,-0.22656 -0.27861,-0.43043 -0.27976,-0.97108 -0.001,-0.58341 0.0656,-0.81397 0.31529,-1.08714 0.19542,-0.21382 0.40283,-0.31102 0.74576,-0.34948 0.51978,-0.0583 1.01824,0.0775 1.2643,0.34447 0.2039,0.2212 0.27936,0.46117 0.28106,0.89378 0.003,0.82708 -0.33666,1.32717 -0.99724,1.46719 -0.23502,0.0498 -0.61205,0.0434 -0.82558,-0.0141 z m 0.70356,-0.72371 c 0.18217,-0.0761 0.24736,-0.21842 0.24751,-0.54031 1.8e-4,-0.4138 -0.10086,-0.59111 -0.35639,-0.62539 -0.18567,-0.0249 -0.35686,0.0644 -0.44151,0.23031 -0.0854,0.1674 -0.11902,0.56102 -0.0626,0.73214 0.0735,0.22263 0.34839,0.31379 0.61294,0.20325 z" />
    </g>
  </g>
</svg>
