<?xml version="1.0" encoding="UTF-8" standalone="no"?>
<svg
   shape-rendering="geometricPrecision"
   text-rendering="geometricPrecision"
   image-rendering="optimizeQuality"
   fill-rule="evenodd"
   clip-rule="evenodd"
   viewBox="0 0 539.09175 539.09346"
   version="1.1"
   id="svg5"
   sodipodi:docname="star-struck-emoji-icon.svg"
   width="539.09174"
   height="539.09344"
   inkscape:version="1.3 (0e150ed6c4, 2023-07-21)"
   xmlns:inkscape="http://www.inkscape.org/namespaces/inkscape"
   xmlns:sodipodi="http://sodipodi.sourceforge.net/DTD/sodipodi-0.dtd"
   xmlns="http://www.w3.org/2000/svg"
   xmlns:svg="http://www.w3.org/2000/svg">
  <defs
     id="defs5" />
  <sodipodi:namedview
     id="namedview5"
     pagecolor="#ffffff"
     bordercolor="#666666"
     borderopacity="1.0"
     inkscape:showpageshadow="2"
     inkscape:pageopacity="0.0"
     inkscape:pagecheckerboard="0"
     inkscape:deskcolor="#d1d1d1"
     inkscape:zoom="0.7753861"
     inkscape:cx="-26.438442"
     inkscape:cy="239.88049"
     inkscape:window-width="1920"
     inkscape:window-height="1017"
     inkscape:window-x="1912"
     inkscape:window-y="-8"
     inkscape:window-maximized="1"
     inkscape:current-layer="svg5" />
  <ellipse
     fill="#FBD433"
     transform="rotate(-15.000036)"
     id="circle5"
     style="fill:#40270e;fill-opacity:1;stroke-width:2.73716"
     cx="190.59729"
     cy="330.12585"
     rx="269.54581"
     ry="269.54678" />
  <ellipse
     fill="#FBD433"
     transform="rotate(-15.000037)"
     id="circle1"
     style="fill:#ffc09d;fill-opacity:1;stroke-width:2.73716"
     cx="190.59729"
     cy="330.12585"
     rx="255.9351"
     ry="255.936" />
  <path
     fill="#40270e"
     d="m 132.50359,292.0088 c 69.505,-2.157 212.529,1.216 274.081,-0.172 0,165.705 -274.081,181.549 -274.081,0.172 z"
     id="path1" />
  <path
     fill="#ff0000"
     d="m 360.44059,389.9738 c -57.28935,46.08181 -142.37245,38.91561 -184.29447,2.5043 32.412,-36.842 57.13547,-36.9973 92.40147,-8.8003 33.646,-24.855 64.016,-24.321 91.893,6.296 z"
     id="path2"
     sodipodi:nodetypes="cccc" />
  <path
     fill="#ffffff"
     d="m 132.50459,292.0088 c 69.506,-6.316 212.527,-2.806 274.08,-0.172 0.786,58.938 -273.259,58.213 -274.08,0.172 z"
     id="path3" />
  <path
     fill="#c62828"
     fill-rule="nonzero"
     d="m 172.90059,74.765802 63.123,-7.413 c 15.4,-1.922 25.548,15.763 16.207,28.123 l -38.327,50.781998 26.585,57.8 c 6.646,14.477 -7.828,29.417 -22.395,23.767 l -59.472,-20.541 -46.801,43.143 c -11.457,10.542 -29.824001,2.071 -29.534001,-13.239 l 1.155,-63.607 -55.483,-31.13 c -13.764,-7.721 -11.131,-28.341 4.083,-32.432 l 60.209,-18.324998 12.464001,-62.397 c 3.048,-15.036 22.965,-19.5059999 31.866,-6.564 z m 194.672,0 -63.122,-7.413 c -15.4,-1.922 -25.547,15.763 -16.207,28.123 l 38.327,50.781998 -26.585,57.8 c -6.646,14.477 7.828,29.417 22.396,23.767 l 59.472,-20.541 46.801,43.143 c 11.456,10.542 29.824,2.071 29.533,-13.239 l -1.155,-63.607 55.483,-31.13 c 13.764,-7.721 11.132,-28.341 -4.082,-32.432 l -60.21,-18.324998 -12.464,-62.397 c -3.047,-15.036 -22.965,-19.5059999 -31.865,-6.564 z"
     id="path4" />
  <path
     fill="#f44336"
     fill-rule="nonzero"
     d="m 373.25759,87.503802 -70.257,-8.25 c -4.98,-0.608 -8.151,5.084 -5.19,9 l 42.626,56.478998 -29.573,64.295 c -2.139,4.656 2.52,9.459 7.204,7.636 l 66.671,-23.019 52.004,47.991 c 3.683,3.402 9.581,0.623 9.487,-4.259 l -1.284,-70.757 61.709,-34.625 c 4.454,-2.5 3.522,-9.092 -1.316,-10.393 l -67.486,-20.57 -13.862,-69.390998 c -0.984,-4.947 -7.446,-6.181 -10.25,-2.109 z m -206.041,0 70.257,-8.25 c 4.98,-0.608 8.151,5.084 5.191,9 l -42.626,56.478998 29.573,64.295 c 2.138,4.656 -2.521,9.459 -7.205,7.636 l -66.671,-23.019 -52.004,47.991 c -3.683,3.402 -9.581001,0.623 -9.487001,-4.259 l 1.284,-70.757 -61.709,-34.625 c -4.453,-2.5 -3.522,-9.092 1.316,-10.393 l 67.486001,-20.57 13.863,-69.390998 c 0.983,-4.947 7.445,-6.181 10.249,-2.109 z"
     id="path5" />
</svg>
