<?xml version="1.0" encoding="UTF-8" standalone="no"?>
<svg
   version="1.1"
   id="Layer_1"
   x="0px"
   y="0px"
   viewBox="0 0 160.62617 178.42294"
   xml:space="preserve"
   sodipodi:docname="surprisedo-icon.svg"
   width="160.62617"
   height="178.42294"
   inkscape:version="1.3 (0e150ed6c4, 2023-07-21)"
   xmlns:inkscape="http://www.inkscape.org/namespaces/inkscape"
   xmlns:sodipodi="http://sodipodi.sourceforge.net/DTD/sodipodi-0.dtd"
   xmlns="http://www.w3.org/2000/svg"
   xmlns:svg="http://www.w3.org/2000/svg"><defs
     id="defs2"><inkscape:path-effect
       effect="fillet_chamfer"
       id="path-effect1"
       is_visible="true"
       lpeversion="1"
       nodesatellites_param="F,0,0,1,0,1.9742887,0,1 @ F,0,0,1,0,2.2521713,0,1 @ F,0,0,1,0,0,0,1 @ F,0,0,1,0,0,0,1 @ F,0,0,1,0,1.7940905,0,1 @ F,0,0,1,0,1.6414851,0,1 @ F,0,0,1,0,0,0,1 @ F,0,0,1,0,0,0,1 | F,0,0,1,0,0,0,1 @ F,0,0,1,0,2.1886389,0,1 @ F,0,0,1,0,2.1399535,0,1 @ F,0,0,1,0,0,0,1 @ F,0,0,1,0,0,0,1 @ F,0,0,1,0,1.6944991,0,1 @ F,0,0,1,0,1.6944991,0,1 @ F,0,0,1,0,0,0,1 | F,0,0,1,0,2.2929878,0,1 @ F,0,0,1,0,0,0,1 @ F,0,0,1,0,0,0,1 @ F,0,0,1,0,1.7722283,0,1 @ F,0,1,1,0,1.7722283,0,1 @ F,0,0,1,0,0,0,1 @ F,0,0,1,0,0,0,1 @ F,0,0,1,0,2.1266331,0,1 | F,0,0,1,0,0,0,1 @ F,0,0,1,0,0,0,1 @ F,0,0,1,0,0,0,1 @ F,0,0,1,0,0,0,1 @ F,0,0,1,0,0,0,1 @ F,0,0,1,0,0,0,1 @ F,0,0,1,0,0,0,1 @ F,0,0,1,0,0,0,1 | F,0,0,1,0,0,0,1 @ F,0,0,1,0,0,0,1 @ F,0,0,1,0,0,0,1 @ F,0,0,1,0,0,0,1 @ F,0,0,1,0,0,0,1 @ F,0,0,1,0,0,0,1 @ F,0,0,1,0,0,0,1 @ F,0,0,1,0,0,0,1 | F,0,0,1,0,0,0,1 @ F,0,0,1,0,0,0,1 @ F,0,0,1,0,0,0,1 @ F,0,0,1,0,0,0,1 @ F,0,0,1,0,0,0,1 @ F,0,0,1,0,0,0,1 @ F,0,0,1,0,0,0,1 @ F,0,0,1,0,0,0,1 @ F,0,0,1,0,0,0,1 @ F,0,0,1,0,0,0,1"
       radius="0"
       unit="px"
       method="auto"
       mode="F"
       chamfer_steps="1"
       flexible="false"
       use_knot_distance="true"
       apply_no_radius="true"
       apply_with_radius="true"
       only_selected="false"
       hide_knots="false" /></defs><sodipodi:namedview
     id="namedview2"
     pagecolor="#ffffff"
     bordercolor="#666666"
     borderopacity="1.0"
     inkscape:showpageshadow="2"
     inkscape:pageopacity="0.0"
     inkscape:pagecheckerboard="0"
     inkscape:deskcolor="#d1d1d1"
     showgrid="false"
     inkscape:zoom="1.1422583"
     inkscape:cx="123.87741"
     inkscape:cy="-14.00734"
     inkscape:window-width="1920"
     inkscape:window-height="1017"
     inkscape:window-x="1912"
     inkscape:window-y="-8"
     inkscape:window-maximized="1"
     inkscape:current-layer="Layer_1"
     showguides="true"><sodipodi:guide
       position="81.404128,88.197462"
       orientation="0,-1"
       id="guide13"
       inkscape:locked="false" /></sodipodi:namedview><style
     type="text/css"
     id="style1">.st0{fill-rule:evenodd;clip-rule:evenodd;fill:#FBD433;} .st1{fill:#141518;}</style><path
     style="fill:#40270e;fill-opacity:1;stroke-width:1"
     d="M 64.131569,50.995226 C 98.598874,41.760471 134.02332,62.217874 143.25805,96.674662 152.49282,131.14196 132.03542,166.5664 97.578634,175.80116 63.111329,185.03591 27.68689,164.57851 18.452135,130.12172 9.2173788,95.65442 29.664264,60.229982 64.131569,50.995226 Z"
     id="path8" /><path
     style="fill:#ffc09d;fill-opacity:1"
     d="m 64.955081,54.068194 c 32.77,-8.78 66.449999,10.670001 75.229999,43.430001 8.78,32.769995 -10.67,66.449995 -43.429999,75.229995 -32.77,8.78 -66.45,-10.67 -75.23,-43.43 -8.78,-32.769995 10.66,-66.449995 43.43,-75.229996 z"
     id="path1" /><g
     id="g1"><circle
       style="fill:#ffffff;fill-opacity:1;stroke:none;stroke-width:22.6772;stroke-linecap:round;paint-order:fill markers stroke"
       id="path3"
       cx="59.894749"
       cy="108.03468"
       r="18.35" /><circle
       style="fill:#ffffff;fill-opacity:1;stroke:none;stroke-width:22.6772;stroke-linecap:round;paint-order:fill markers stroke"
       id="circle7"
       cx="101.81475"
       cy="108.03468"
       r="18.35" /></g><path
     d="m 39.524749,93.444676 c -1.55,1.25 -3.82,1 -5.07,-0.55 -1.25,-1.55 -1,-3.82 0.55,-5.07 3.94,-3.17 8,-5.91 12.57,-7.94 4.63,-2.05 9.74,-3.35 15.73,-3.6 1.99,-0.08 3.67,1.47 3.74,3.46 0.08,1.99 -1.47,3.67 -3.46,3.74 -4.97,0.21 -9.23,1.29 -13.1,3.01 -3.92,1.74 -7.48,4.14 -10.96,6.95 z"
     id="path7"
     style="fill:#40270e;fill-opacity:1" /><path
     d="m 126.70474,87.814676 c 1.55,1.25 1.8,3.52 0.55,5.07 -1.25,1.55 -3.52,1.8 -5.07,0.55 -3.48,-2.8 -7.03,-5.21 -10.95999,-6.95 -3.87,-1.71 -8.13,-2.8 -13.100001,-3.01 -1.99,-0.08 -3.54,-1.75 -3.46,-3.74 0.08,-1.99 1.75,-3.54 3.74,-3.46 5.980001,0.25 11.100001,1.55 15.730001,3.6 4.56999,2.03 8.62999,4.77 12.56999,7.94 z"
     id="path2"
     style="fill:#40270e;fill-opacity:1" /><path
     d="m 101.81475,100.35468 c 4.24,0 7.68,3.44 7.68,7.68 0,4.24 -3.44,7.68 -7.68,7.68 -4.240001,0 -7.680001,-3.44 -7.680001,-7.68 0,-4.24 3.44,-7.68 7.680001,-7.68 z"
     id="path6"
     style="fill:#40270e;fill-opacity:1" /><path
     d="m 59.894749,100.35468 c -4.24,0 -7.68,3.44 -7.68,7.68 0,4.24 3.44,7.68 7.68,7.68 4.24,0 7.68,-3.44 7.68,-7.68 0,-4.24 -3.44,-7.68 -7.68,-7.68 z"
     id="path5"
     style="fill:#40270e;fill-opacity:1" /><ellipse
     style="fill:#40270e;fill-opacity:1;stroke:none;stroke-width:22.6772;stroke-linecap:round;paint-order:fill markers stroke"
     id="path9"
     cx="80.542198"
     cy="148.06195"
     rx="12.694151"
     ry="15.216069" /><path
     id="text11"
     style="font-size:56.9828px;line-height:1.25;stroke-width:0.999999;fill:#40270e;fill-opacity:1"
     d="M 81.970044,0.19614234 C 78.436309,-0.04080529 74.560429,0.70011205 71.052075,2.1941892 69.630427,2.799616 69.052631,4.489225 69.663403,5.8680173 a 0.77322102,0.77322102 0 0 0 0,0.00195 l 0.05664,0.1269532 c 0.67372,1.5186335 2.452555,2.1506407 3.96289,1.5546875 3.740582,-1.4759714 7.089908,-1.7999353 9.367188,-1.1523438 2.27339,0.6464854 3.521127,2.066567 3.52539,4.6347658 -0.05032,1.918706 -0.644942,3.206783 -1.554687,4.341797 -0.911203,1.136831 -2.169023,2.096025 -3.482422,3.175781 -2.626798,2.159512 -5.445312,4.951183 -5.445312,10.671875 a 0.77322102,0.77322102 0 0 0 0.002,0.05859 c 0.0984,1.27616 1.350845,2.349081 2.626953,2.25 l -0.06055,0.002 h 0.552734 l -0.193402,-0.02543 c 1.075003,0.276352 2.304844,-0.44865 2.582031,-1.523437 a 0.77322102,0.77322102 0 0 0 0.02539,-0.19336 c 0,-2.00564 0.600521,-3.436417 1.546875,-4.714844 0.946354,-1.278426 2.264864,-2.382519 3.652344,-3.568359 2.774959,-2.371679 5.84118,-5.189239 6.082031,-10.542969 a 0.77322102,0.77322102 0 0 0 0.002,-0.03516 c 0,-3.4722798 -1.241493,-6.1256547 -3.255859,-7.8906247 C 87.641225,1.2749224 84.914865,0.39360165 81.970044,0.19614234 Z M 50.659497,7.0242673 c -2.830175,-0.050923 -5.594287,1.417235 -7.980469,3.6757817 -2.386182,2.258546 -4.420803,5.333162 -5.789062,8.687499 -0.62901,1.54204 0.221357,3.275096 1.738281,3.861328 a 0.77322102,0.77322102 0 0 0 0.0078,0.0039 l 0.02344,0.0078 c 1.492694,0.57687 3.141518,-0.193959 3.773437,-1.625 0.657484,-1.488934 1.710317,-3.524163 3.085938,-5.189453 1.375621,-1.66529 3.037631,-2.919384 4.914062,-3.083984 1.308466,-0.114777 2.24955,0.0119 2.91211,0.277344 0.66256,0.26544 1.071568,0.650627 1.390625,1.208984 0.638113,1.116714 0.777519,3.025024 0.779297,5.302734 0.0036,4.555422 -0.400745,10.614886 3.972656,14.988281 a 0.77322102,0.77322102 0 0 0 0.02734,0.02539 c 0.926614,0.84125 2.534919,0.763793 3.376953,-0.162109 l 0.40039,-0.398438 -0.162109,0.123047 c 0.977503,-0.560468 1.358157,-1.957392 0.798828,-2.935547 a 0.77322102,0.77322102 0 0 0 -0.125,-0.164062 C 62.213744,30.037499 61.603348,27.861296 61.3802,25.352392 61.157052,22.843488 61.339507,20.056995 61.229809,17.410986 61.120111,14.764977 60.723865,12.209764 59.155591,10.252783 57.587316,8.2958015 54.901298,7.1005899 50.659497,7.0242673 Z m 57.423823,1.0253906 c -1.15481,0.032113 -2.24195,0.7629809 -2.66406,1.9042969 a 0.77322102,0.77322102 0 0 0 -0.008,0.017578 c 0.009,-0.025146 -0.004,0.012403 -0.006,0.017578 -0.58376,1.5813012 0.26669,3.2858892 1.76562,3.9433592 2.20393,0.966704 4.20654,2.270094 5.66211,3.6875 1.45557,1.417407 2.33688,2.935757 2.45508,4.283203 0.0804,0.916898 -0.31894,2.359907 -1.33594,3.509766 -1.01668,1.149503 -2.60962,2.054127 -5.02539,2.054687 -3.91346,-0.266384 -6.63535,-0.374748 -8.947261,0.05859 -2.323465,0.435507 -4.196057,1.452259 -6.238281,3.269531 -1.065237,0.947901 -1.05206,2.610043 -0.06445,3.597657 l 0.158203,0.158203 c 0.989811,0.989811 2.525799,0.891681 3.554688,0.107422 3.321891,-2.532091 8.076731,-1.511518 12.673821,-1.332032 a 0.77322102,0.77322102 0 0 0 0.0293,0 c 7.23478,1e-5 11.79517,-6.024149 11.53125,-11.25 C 121.34153,16.477572 115.9218,11.009747 109.23957,8.2605954 108.8621,8.1052992 108.46826,8.0389537 108.08332,8.0496579 Z M 79.089184,34.545751 c -1.169228,0 -2.228932,0.343772 -3.058593,1.035157 a 0.77322102,0.77322102 0 0 0 -0.01758,0.01367 c -0.882198,0.77841 -1.230468,2.01897 -1.230468,3.542968 0,1.4893 0.356427,2.719307 1.21289,3.525391 a 0.77322102,0.77322102 0 0 0 0.01563,0.01563 c 0.827203,0.735291 1.899524,1.107422 3.078125,1.107422 1.114858,0 2.146671,-0.381893 2.962891,-1.107422 0.89901,-0.79912 1.285156,-2.044686 1.285156,-3.541016 0,-1.530837 -0.380708,-2.786658 -1.304687,-3.55664 -0.818481,-0.682068 -1.838624,-1.035156 -2.94336,-1.035157 z m 9.859375,0.861329 c -1.174245,-0.07339 -2.297531,0.557296 -3.375,1.634765 -1.053295,1.053297 -1.672345,2.175893 -1.636718,3.351563 a 0.77322102,0.77322102 0 0 0 0.002,0.02148 c 0.06498,1.104664 0.559398,2.125802 1.392578,2.958984 0.788091,0.788092 1.788173,1.248341 2.878906,1.3125 1.200269,0.0706 2.353846,-0.53549 3.412109,-1.59375 1.082297,-1.082299 1.7027,-2.23906 1.59375,-3.4375 -0.09655,-1.062118 -0.570623,-2.033514 -1.351562,-2.814453 -0.826561,-0.82656 -1.818659,-1.333833 -2.894531,-1.43164 a 0.77322102,0.77322102 0 0 0 -0.02148,-0.002 z m -20.3125,0.02148 c -0.144847,-0.0086 -0.29634,-0.0083 -0.451172,0.0059 -1.062107,0.09656 -2.033512,0.570622 -2.814453,1.351563 -0.826559,0.82656 -1.333833,1.818659 -1.43164,2.894531 a 0.77322102,0.77322102 0 0 0 -0.002,0.02148 c -0.07339,1.174246 0.557296,2.297532 1.634765,3.375 1.053296,1.053296 2.175894,1.672344 3.351563,1.636719 a 0.77322102,0.77322102 0 0 0 0.02148,-0.002 c 1.104664,-0.06497 2.125802,-0.559398 2.958984,-1.392578 0.788092,-0.788091 1.24834,-1.788173 1.3125,-2.878906 0.0706,-1.200269 -0.53549,-2.353847 -1.59375,-3.41211 -0.947333,-0.947374 -1.932693,-1.536698 -2.986277,-1.599599 z" /><path
     id="ellipse9"
     style="fill:#e3dedb;fill-opacity:1;stroke:none;stroke-width:22.6772;stroke-linecap:round;paint-order:fill markers stroke"
     d="m 71.214408,141.73526 c 2.832826,0.93314 6.011301,1.42483 9.243685,1.42992 3.299614,-0.003 6.542775,-0.51336 9.419697,-1.48189 -4.36609,-9.35883 -14.295617,-9.40596 -18.663382,0.052 z"
     sodipodi:nodetypes="cccc" /></svg>
