<?xml version="1.0" encoding="UTF-8" standalone="no"?>
<!-- Created with Inkscape (http://www.inkscape.org/) -->

<svg
   width="134.45818mm"
   height="35.111813mm"
   viewBox="0 0 134.45818 35.111813"
   version="1.1"
   id="svg1"
   xmlns="http://www.w3.org/2000/svg"
   xmlns:svg="http://www.w3.org/2000/svg">
  <defs
     id="defs1" />
  <g
     id="layer1"
     transform="translate(-33.590663,-158.82401)">
    <path
       id="path1"
       style="fill:#f3f3f0;fill-opacity:1;stroke-linecap:round"
       d="m 49.658203,158.84179 -13.149012,-0.0178 c -1.606367,-0.002 -2.909386,1.3001 -2.908114,2.90647 l 0.01025,12.96884 c 0.0012,1.5203 0.450563,2.8574 1.039063,4.0957 -0.05519,0.0895 -0.12219,0.11878 -0.173829,0.2168 -0.518406,0.98409 -0.775766,1.9174 -0.855468,2.70703 v 0.002 c -0.03894,0.38651 -0.03459,0.71783 -0.01953,0.97266 4e-5,6.7e-4 -3.9e-5,0.001 0,0.002 6.1e-5,0.001 -6.1e-5,0.003 0,0.004 0.0034,0.058 0.0061,0.11286 0.0098,0.16796 v 3.35352 c -0.003,0.0506 -0.008,0.10387 -0.0098,0.16016 -0.0065,0.20319 -0.0076,0.46249 0.01953,0.78711 0.05405,0.64698 0.220813,1.40567 0.560547,2.24218 0.606591,1.49424 1.667306,2.41675 2.689453,3.11914 1.035849,0.7118 2.362663,1.40625 4.072265,1.40625 0.847281,0 1.39972,-0.29512 2.017578,-0.52539 1.139966,0.27399 2.291739,0.52539 3.47461,0.52539 1.695351,0 3.138698,-0.49348 4.455078,-1.11328 0.0091,0.005 0.01229,0.011 0.02148,0.0156 0.96194,0.48546 1.86545,0.72913 2.644532,0.80273 l 0.002,0.002 c 0.396488,0.0373 0.729162,0.027 0.933593,0.0156 0.0039,-6.6e-4 0.0078,-0.001 0.01172,-0.002 0.05134,-0.003 0.09971,-0.006 0.148438,-0.01 h 10.136718 c 0.775686,4.6e-4 1.546911,-0.13279 2.28125,-0.39453 h 0.002 c 0.573214,-0.20485 0.876756,-0.57681 1.277343,-0.90039 1.505987,0.81689 3.158172,1.45508 5.087891,1.45508 5.827996,0 10.451959,-4.34417 11.660156,-9.82227 0.09901,-0.18958 0.185125,-0.38679 0.246094,-0.5918 0.07514,-0.25294 0.113296,-0.51542 0.113281,-0.77929 v -0.0801 c 0.0067,-0.0454 0.0036,0.0165 0.01563,-0.11914 -0.01273,-0.0939 -0.03033,-0.18718 -0.05273,-0.2793 l 0.03711,0.0371 v -20.59375 c 1.74e-4,-1.5113 -1.225023,-2.7365 -2.736328,-2.73633 z m 41.597656,0 c -1.511305,-1.7e-4 -2.736502,1.22503 -2.736328,2.73633 v 21.56641 c 0.0092,0.0905 0.02288,0.18042 0.04102,0.26953 v 2.80664 c -0.0029,0.0502 -0.008,0.10205 -0.0098,0.1582 -0.0064,0.20245 -0.0076,0.46108 0.01953,0.78516 0.05224,0.62499 0.211968,1.38702 0.550782,2.22656 0.605537,1.50035 1.666432,2.41691 2.679687,3.11719 1.032293,0.71341 2.360781,1.41406 4.076172,1.41406 0.834425,0 1.4005,-0.29357 2.025391,-0.52344 1.139018,0.27334 2.288567,0.52344 3.468747,0.52344 1.6955,0 3.14007,-0.49425 4.45704,-1.11523 0.0101,0.005 0.0133,0.0125 0.0234,0.0176 0.95629,0.48262 1.85439,0.72786 2.63477,0.80273 0.39921,0.0383 0.73701,0.0287 0.93555,0.0176 0.004,-6.6e-4 0.008,-10e-4 0.0117,-0.002 0.0505,-0.003 0.0984,-0.007 0.14649,-0.01 h 10.14258 c 0.78087,-2.4e-4 1.55015,-0.13879 2.27148,-0.39649 0.57419,-0.20521 0.87821,-0.57815 1.2793,-0.90234 1.51071,0.81959 3.16793,1.45899 5.09961,1.45899 1.96543,0 3.65174,-0.65781 5.1875,-1.50391 0.34557,0.2725 0.59286,0.5748 1.10351,0.78125 0.822,0.33234 1.56966,0.49203 2.19336,0.54687 0.31497,0.0281 0.58553,0.0287 0.78125,0.0215 0.0547,-0.002 0.10704,-0.004 0.1582,-0.006 h 8.80079 c 0.031,0.001 0.0691,0.002 0.0977,0.004 0.0156,8e-4 0.0313,0.001 0.0469,0.002 0.13271,0.005 0.42794,0.014 0.78515,-0.0176 0.64774,-0.0561 1.40547,-0.22588 2.23633,-0.56836 0.48538,-0.20009 0.71854,-0.491 1.05274,-0.75195 1.5291,0.83914 3.20718,1.49219 5.16211,1.49219 6.76737,0 12.07031,-5.79243 12.07031,-12.51954 0,-3.09083 -1.25302,-5.77919 -3.04492,-7.87695 0.2447,-0.78422 0.6088,-1.54204 0.59736,-2.22265 l -0.008,-9.43942 c -10e-4,-1.60707 -1.30574,-2.9085 -2.91281,-2.90614 l -10.73162,0.0154 z" />
    <path
       id="path2"
       style="fill:none;stroke:#000000;stroke-width:1.20329;stroke-linecap:round;stroke-dasharray:none"
       d="m 49.657418,162.17418 h 32.462474 v 15.59715" />
    <path
       id="path3"
       style="font-size:13.1096px;font-family:'Latin Modern Mono Light';-inkscape-font-specification:'Latin Modern Mono Light, ';stroke-width:2.19091"
       d="m 157.92325,170.50827 c 0,0 -0.15903,6.6e-4 -0.39562,0.10569 l -3.6271,1.62945 c -0.26292,0.10509 -0.50137,0.2133 -0.50137,0.52879 0,0.1841 0.10489,0.81473 0.63062,0.81473 0,0 0.13156,-0.001 0.18411,-0.0275 l 3.7877,-1.68037 c 0.49954,-0.21034 0.60321,-0.47627 0.60321,-0.71289 0,-0.36809 -0.28719,-0.65804 -0.68155,-0.65804 z m -57.81436,-0.61483 c -3.937919,-0.13028 -7.665863,5.55392 -1.415193,8.022 2.805303,1.12294 5.953013,1.349 6.276143,4.84516 0,4.61341 -8.102717,5.14135 -8.307879,-0.18408 -0.0263,-0.3155 -0.0495,-0.68156 -0.65413,-0.68156 -0.68357,0 -0.68547,0.44778 -0.68547,0.84214 v 3.57227 c 0,0.31548 1.8e-4,0.84216 0.55229,0.84216 0.44696,0 0.55295,-0.34001 0.84216,-1.41796 2.015108,3.02157 9.430419,2.24515 9.490789,-3.10222 0.0456,-4.04074 -4.04042,-4.87928 -7.224053,-6.00457 -4.900637,-2.013 -1.031812,-5.61572 1.097923,-5.63267 3.33887,-0.0266 3.86333,2.70862 4.07364,3.76028 0.0788,0.31548 0.28885,0.3956 0.63062,0.39562 0.68357,0 0.68548,-0.44778 0.68548,-0.84216 v -3.57618 c 0,-0.3155 -1.8e-4,-0.83823 -0.55229,-0.83823 -0.44694,0 -0.55295,0.4172 -0.84214,1.46885 -1.39343,-1.18311 -2.78543,-1.42973 -3.96789,-1.46885 z m 30.2076,0.61883 c 0,0 -0.15903,-0.004 -0.3956,0.10188 l -3.62712,1.62945 c -0.2629,0.10509 -0.50137,0.21331 -0.50137,0.52879 0,0.1841 0.1087,0.81473 0.63456,0.81473 0,0 0.13156,-0.001 0.1841,-0.0275 l 3.78379,-1.68045 c 0.49952,-0.21034 0.60321,-0.47627 0.60321,-0.71289 0,-0.36809 -0.28719,-0.65413 -0.68157,-0.65413 z m 7.41482,0.28594 c -0.3155,0 -0.84214,10e-4 -0.84214,0.5797 0,0.52582 0.55181,0.52488 0.81473,0.52488 h 3.8112 v 13.85822 h -3.78379 c -0.3155,0 -0.84214,-0.004 -0.84214,0.54836 0,0.55211 0.55181,0.55231 0.81473,0.55229 h 8.96592 c 0.28921,0 0.81472,-1.8e-4 0.81472,-0.55229 0,-0.55211 -0.49922,-0.54836 -0.81472,-0.54836 h -3.81121 v -14.12066 c 0,-0.63098 -0.13115,-0.84214 -0.81472,-0.84214 z m -9.36154,4.65334 c -2.89203,0 -5.31141,2.57896 -5.31141,5.81278 0,3.28639 2.47196,5.75793 5.31141,5.75793 2.83944,0 5.3114,-2.49783 5.3114,-5.75793 0,-3.23382 -2.41937,-5.81278 -5.3114,-5.81278 z m 27.60674,0 c -2.89201,0 -5.31139,2.57896 -5.31139,5.81278 0,3.28639 2.47196,5.75793 5.31139,5.75793 2.83944,0 5.31142,-2.49783 5.31142,-5.75793 0,-3.23382 -2.41939,-5.81278 -5.31142,-5.81278 z m -46.08696,0.23894 c -0.68357,0 -0.84216,0.15863 -0.84216,0.84214 v 1.26127 c 0,0.36807 7.8e-4,0.84214 0.65806,0.84214 0.68357,0 0.68154,-0.44778 0.68154,-0.84214 v -0.99883 h 7.70467 l -8.96592,8.51549 c -0.47325,0.44696 -0.50137,0.5289 -0.50137,0.89697 0,0.65728 0.44777,0.65413 0.84215,0.65413 h 10.2546 c 0.36807,-0.13156 0.36819,-0.549 0.36819,-0.83821 v -1.57854 c 0,-0.36809 -7.7e-4,-0.84216 -0.65804,-0.84216 -0.68357,0 -0.68157,0.44778 -0.68157,0.84216 v 1.3161 h -8.25694 l 8.96592,-8.5194 c 0.47323,-0.44696 0.52488,-0.525 0.52488,-0.89306 0,-0.65728 -0.47408,-0.65806 -0.84215,-0.65806 z m 18.48022,0.86565 c 2.077,0 3.9718,1.86869 3.9718,4.52409 0,2.68169 -1.84222,4.83745 -3.9718,4.83745 -2.15588,0 -3.96789,-2.15576 -3.96789,-4.83745 0,-2.6554 1.91718,-4.52409 3.96789,-4.52409 z m 27.60674,0 c 2.077,0 3.96791,1.86869 3.96791,4.52409 0,2.68169 -1.83833,4.83745 -3.96791,4.83745 -2.15586,0 -3.97178,-2.15576 -3.97178,-4.83745 0,-2.6554 1.92109,-4.52409 3.97178,-4.52409 z" />
    <path
       id="path4"
       style="font-size:13.1096px;font-family:'Latin Modern Mono Light';-inkscape-font-specification:'Latin Modern Mono Light, ';stroke-width:2.19091"
       d="m 51.273076,182.63054 c 0,-1.63004 -0.920177,-2.70797 -1.235679,-3.04976 -1.077928,-1.05164 -1.787789,-1.20939 -3.838497,-1.68262 l -2.20846,-0.49955 c -1.261971,-0.36807 -2.366191,-1.4197 -2.366191,-2.81313 0,-1.52489 1.419723,-2.97091 3.523015,-2.97091 3.338971,0 3.864789,2.70799 4.075104,3.75964 0.07882,0.31549 0.289211,0.39436 0.631005,0.39436 0.68355,0 0.68355,-0.44694 0.68355,-0.84132 v -3.57558 c 0,-0.3155 0,-0.84132 -0.55211,-0.84132 -0.446942,0 -0.55211,0.42065 -0.841301,1.47231 -1.39343,-1.18312 -2.786861,-1.47231 -3.969956,-1.47231 -2.839445,0 -4.784986,1.99813 -4.784986,4.18029 0,1.70892 1.183096,3.39154 3.312679,3.99623 l 3.102344,0.73616 c 0.841321,0.1841 3.233804,0.78873 3.233804,3.33897 0,1.52489 -1.261971,3.28638 -3.575578,3.28638 -0.815029,0 -2.20846,-0.13156 -3.338971,-0.89388 -1.23568,-0.78874 -1.367139,-2.02442 -1.393431,-2.57653 -0.02627,-0.3155 -0.05254,-0.68357 -0.657278,-0.68357 -0.683569,0 -0.683569,0.44695 -0.683569,0.8413 v 3.5756 c 0,0.31549 0,0.84132 0.55211,0.84132 0.446942,0 0.55211,-0.34179 0.841321,-1.41972 1.367138,1.02534 2.970884,1.41972 4.653526,1.41972 2.970884,0 4.837549,-2.23475 4.837549,-4.52208 z m 13.881702,3.39155 v -1.57745 c 0,-0.36809 0,-0.84132 -0.657278,-0.84132 -0.683569,0 -0.683569,0.44694 -0.683569,0.84132 v 1.31455 h -8.255416 l 8.965277,-8.51831 c 0.473234,-0.44696 0.525818,-0.52584 0.525818,-0.89391 0,-0.65727 -0.473234,-0.65727 -0.84132,-0.65727 h -9.254469 c -0.683569,0 -0.8413,0.15783 -0.8413,0.84132 v 1.26197 c 0,0.36806 0,0.84132 0.657277,0.84132 0.68357,0 0.68357,-0.44696 0.68357,-0.84132 v -0.99907 h 7.703286 l -8.965278,8.51831 c -0.473234,0.44696 -0.499526,0.52584 -0.499526,0.89391 0,0.65727 0.446963,0.65727 0.841321,0.65727 h 10.25352 c 0.368087,-0.13156 0.368087,-0.55211 0.368087,-0.84132 z m 13.592491,-4.75867 c 0,-3.23383 -2.418795,-5.81035 -5.310803,-5.81035 -2.892029,0 -5.310804,2.57652 -5.310804,5.81035 0,3.28639 2.471359,5.75774 5.310804,5.75774 2.839425,0 5.310803,-2.49765 5.310803,-5.75774 z m -1.340847,-0.18411 c 0,2.6817 -1.840393,4.83755 -3.969956,4.83755 -2.155876,0 -3.969957,-2.15585 -3.969957,-4.83755 0,-2.6554 1.919249,-4.52206 3.969957,-4.52206 2.07698,0 3.969956,1.86666 3.969956,4.52206 z m -1.340847,-9.91174 c 0,-0.36809 -0.28921,-0.65728 -0.683569,-0.65728 0,0 -0.157832,0 -0.394378,0.10509 l -3.628162,1.63004 c -0.262919,0.10508 -0.499526,0.21033 -0.499526,0.52581 0,0.18411 0.105087,0.81503 0.630985,0.81503 0,0 0.13156,0 0.184104,-0.0263 l 3.785913,-1.68262 c 0.499526,-0.21033 0.604694,-0.47323 0.604694,-0.70986 z" />
    <path
       id="path5"
       style="-inkscape-font-specification:'Latin Modern Mono Light, ';fill:#666666;stroke-width:2.00548"
       d="m 40.749036,167.48642 c -2.628388,1.3515 -4.401437,4.15115 -4.401437,7.20583 0,1.68637 0.673923,3.22355 1.653001,4.54755 -0.405008,0.28687 -0.842123,0.54303 -1.104761,1.04155 -0.364537,0.692 -0.50817,1.27002 -0.552371,1.70793 -0.02206,0.21896 -0.02026,0.40246 -0.01203,0.53994 0.008,0.13738 0.01604,0.25764 0.01604,0.20831 v 3.5765 c 0,-0.0702 -0.03028,0.25628 0,0.61871 0.03028,0.36245 0.127749,0.84768 0.368949,1.44158 0.298396,0.73505 0.941836,1.37192 1.703779,1.89551 0.761964,0.52359 1.640948,0.92443 2.522519,0.92443 0.567271,0 1.26189,-0.22837 1.934891,-0.54513 1.190716,0.3469 2.395731,0.54513 3.556787,0.54513 1.888865,0 3.496381,-0.71648 4.872986,-1.66129 0.221185,0.30532 0.39871,0.63674 0.83737,0.85811 0.682907,0.34464 1.24332,0.48112 1.668543,0.52129 0.212621,0.02 0.392653,0.016 0.525436,0.008 0.132764,-0.008 0.245672,-0.0161 0.195936,-0.0161 h 10.254804 c 0.464129,5.4e-4 0.925631,-0.0794 1.362827,-0.23526 0.956636,-0.34188 1.32745,-1.11707 1.719322,-1.7784 1.549216,1.26778 3.41901,2.1743 5.566302,2.1743 4.907099,0 8.872764,-3.99141 9.309659,-8.9003 h -1.207362 c -0.429495,4.27698 -3.8835,7.69396 -8.102297,7.69396 -2.009596,0 -3.795861,-0.85822 -5.240872,-2.17428 l -0.552391,-0.50159 -0.372058,0.64668 c -0.43898,0.76387 -0.828826,1.45406 -1.527597,1.70378 -0.30708,0.1095 -0.629542,0.16526 -0.955533,0.16485 H 54.534675 c -0.143793,0 -0.185908,0.014 -0.273588,0.0207 -0.08764,0.006 -0.195735,0.01 -0.333713,-0.004 -0.276135,-0.0261 -0.679758,-0.1113 -1.241575,-0.39486 -0.175881,-0.0886 -0.44973,-0.46198 -0.794874,-0.90163 l -0.364817,-0.46635 -0.473615,0.36065 c -1.311086,0.9949 -2.836838,1.67682 -4.618029,1.67682 -1.099507,0 -2.25619,-0.17047 -3.396168,-0.52128 l -0.238352,-0.0746 -0.223852,0.12133 c -0.583094,0.31444 -1.286999,0.47464 -1.633306,0.47464 -0.480434,0 -1.21777,-0.28087 -1.840594,-0.70886 -0.622843,-0.42797 -1.132818,-1.01271 -1.273683,-1.35972 -0.198142,-0.48815 -0.261455,-0.84106 -0.281891,-1.08506 -0.02046,-0.24401 0.008,-0.2916 0.008,-0.52027 v -3.57648 c 0,-0.14499 -0.01404,-0.19052 -0.02005,-0.28189 -0.006,-0.0915 -0.01003,-0.20185 0.004,-0.3451 0.02888,-0.28646 0.12414,-0.69843 0.422837,-1.2654 0.166455,-0.31609 0.608985,-0.65936 1.127563,-0.99803 l 0.567913,-0.37204 -0.434227,-0.5213 c -1.036856,-1.2353 -1.668543,-2.7038 -1.668543,-4.26152 -2e-5,-2.62095 1.597569,-4.90822 3.91641,-6.11247 0.637122,-0.3879 0.246574,-1.5552 -0.721313,-1.0944 z" />
    <path
       id="path6"
       style="-inkscape-font-specification:'Latin Modern Mono Light, ';fill:#666666;stroke-width:2.00548"
       d="m 159.24364,168.01362 c 1.19834,0.57668 2.18257,1.84547 2.18257,3.15263 0,0.48169 -0.19353,1.37875 -0.63943,2.00432 -0.004,0.002 -0.001,0.001 -0.014,0.01 -0.0529,0.0313 -0.19172,0.0971 -0.32956,0.24251 l -0.46533,0.49331 0.54409,0.40314 c 2.13937,1.59644 3.58789,4.09389 3.58789,6.94571 0,4.67894 -3.63007,8.57798 -8.1313,8.57798 -2.04174,0 -3.86208,-0.86998 -5.31136,-2.22093 l -0.55652,-0.52129 -0.37621,0.66223 c -0.45683,0.8024 -1.08726,1.4817 -1.47267,1.64057 -0.48152,0.19854 -0.83685,0.26506 -1.08092,0.28604 -0.12213,0.01 -0.21547,0.01 -0.29019,0.008 -0.0748,-0.004 -0.10188,-0.016 -0.21868,-0.016 h -8.9666 c -0.11331,2e-5 -0.13818,0.01 -0.21142,0.012 -0.0732,0.002 -0.16846,0.002 -0.29017,-0.008 -0.24333,-0.0215 -0.59551,-0.0836 -1.06539,-0.27361 -0.37222,-0.15041 -1.02581,-0.84677 -1.49548,-1.66854 l -0.38034,-0.66223 -0.55652,0.52128 c -1.44892,1.36229 -3.27257,2.24063 -5.33416,2.24063 -2.01149,0 -3.80182,-0.85496 -5.24503,-2.1743 l -0.55654,-0.50886 -0.37204,0.65395 c -0.4341,0.76153 -0.8269,1.45338 -1.52761,1.70378 -0.30466,0.1089 -0.62473,0.16485 -0.94826,0.16485 h -10.25378 c -0.14239,0 -0.18731,0.014 -0.27463,0.0201 -0.0874,0.006 -0.19513,0.01 -0.33267,-0.004 -0.27501,-0.0263 -0.67478,-0.11351 -1.23431,-0.39589 -0.18331,-0.0924 -0.46177,-0.45909 -0.80318,-0.89647 l -0.36791,-0.4705 -0.46948,0.36066 c -1.30814,0.99593 -2.83343,1.67683 -4.61492,1.67683 -1.09732,0 -2.251719,-0.16786 -3.387869,-0.51714 l -0.24252,-0.0746 -0.22385,0.12133 c -0.57808,0.31667 -1.27982,0.47051 -1.64057,0.47051 -0.48131,0 -1.21725,-0.28023 -1.83746,-0.70886 -0.62022,-0.42863 -1.12699,-1.01265 -1.2654,-1.35557 -0.19574,-0.48474 -0.25755,-0.83863 -0.27774,-1.08093 -0.0203,-0.24233 0.004,-0.29042 0.004,-0.51714 v -3.57235 c 0,-0.13958 -0.01,-0.18831 -0.016,-0.28189 -0.004,-0.0772 -0.002,-0.18049 0.006,-0.29121 h -1.20118 c -0.004,0.12795 -0.014,0.26632 -0.008,0.35753 0.008,0.13878 0.0161,0.25378 0.0161,0.21557 v 3.57235 c 0,-0.0684 -0.0301,0.25863 0,0.61871 0.0301,0.36009 0.12253,0.84012 0.36066,1.43018 0.29537,0.73184 0.93723,1.36659 1.69652,1.89135 0.7593,0.52475 1.6388,0.9286 2.5225,0.9286 0.56222,0 1.26163,-0.22275 1.94215,-0.54411 1.1895,0.34623 2.393589,0.54411 3.552659,0.54411 1.88854,0 3.49375,-0.71514 4.86883,-1.66131 0.22498,0.3067 0.40629,0.63795 0.84257,0.85811 0.68014,0.34326 1.24073,0.48078 1.66439,0.52131 0.21182,0.0203 0.38884,0.016 0.52128,0.008 0.13237,-0.008 0.2484,-0.0161 0.19995,-0.0161 h 10.25378 c 0.4614,-1.4e-4 0.91691,-0.08 1.35142,-0.23524 0.95673,-0.34193 1.33124,-1.11878 1.72347,-1.78151 1.5493,1.2713 3.42621,2.17739 5.57459,2.17739 2.1948,0 4.10554,-0.92926 5.67098,-2.24476 0.46702,0.70445 0.93883,1.43457 1.64575,1.72037 0.57752,0.2335 1.0528,0.32824 1.40945,0.3596 0.17829,0.0161 0.32828,0.0161 0.43942,0.012 0.11111,-0.004 0.21481,-0.008 0.16786,-0.008 h 8.96556 c -0.0441,0 0.056,0.002 0.16886,0.008 0.11311,0.004 0.26545,0.008 0.44668,-0.008 0.36247,-0.0311 0.84353,-0.12895 1.4333,-0.37205 0.70056,-0.28879 1.1614,-1.00345 1.61775,-1.69237 1.56199,1.30234 3.46483,2.22506 5.64092,2.22506 5.19459,0 9.33349,-4.48065 9.33349,-9.78429 0,-2.99221 -1.49176,-5.54178 -3.5879,-7.34886 0.01,-0.014 0.0205,-0.012 0.0311,-0.0269 0.65537,-0.90747 0.87367,-1.97033 0.87367,-2.72253 0,-1.87802 -1.30974,-3.36107 -2.97243,-4.04121 -0.62872,-0.24122 -0.98916,0.64719 -0.41253,0.88688 z" />
    <path
       id="path7"
       style="fill:none;stroke:#000000;stroke-width:1.20329;stroke-linecap:round;stroke-dasharray:none"
       d="m 91.857921,169.96494 v -7.79076 h 60.090349" />
    <path
       style="fill:#447821;fill-opacity:0.594801;stroke-width:2.00548;stroke-linecap:round"
       d="M 74.129842,182.37259 H 99.810211"
       id="path8" />
    <path
       id="path9"
       style="color:#000000;font-style:normal;font-variant:normal;font-weight:normal;font-stretch:normal;font-size:medium;line-height:normal;font-family:sans-serif;font-variant-ligatures:normal;font-variant-position:normal;font-variant-caps:normal;font-variant-numeric:normal;font-variant-alternates:normal;font-variant-east-asian:normal;font-feature-settings:normal;font-variation-settings:normal;text-indent:0;text-align:start;text-decoration-line:none;text-decoration-style:solid;text-decoration-color:#000000;letter-spacing:normal;word-spacing:normal;text-transform:none;writing-mode:lr-tb;direction:ltr;text-orientation:mixed;dominant-baseline:auto;baseline-shift:baseline;text-anchor:start;white-space:normal;shape-padding:0;shape-margin:0;inline-size:0;clip-rule:nonzero;display:inline;overflow:visible;visibility:visible;isolation:auto;mix-blend-mode:normal;color-interpolation:sRGB;color-interpolation-filters:linearRGB;solid-color:#000000;solid-opacity:1;vector-effect:none;fill:#f3f3f0;fill-opacity:1;fill-rule:nonzero;stroke:none;stroke-linecap:round;stroke-linejoin:miter;stroke-miterlimit:4;stroke-dasharray:none;stroke-dashoffset:0;stroke-opacity:1;-inkscape-stroke:none;color-rendering:auto;image-rendering:auto;shape-rendering:auto;text-rendering:auto;enable-background:accumulate;stop-color:#000000;stop-opacity:1"
       d="m 98.871094,178.26172 c -0.983659,0.0602 -1.826172,0.8995 -1.826172,1.94336 v 0.0195 H 73.521484 a 1.2049884,1.2049884 0 0 0 -0.0059,0 c -0.931206,0.005 -1.774498,0.8559 -1.769531,1.78711 0.0045,0.92514 0.844386,1.76501 1.769531,1.76953 a 1.2049884,1.2049884 0 0 0 0.0059,0 h 23.523438 v 0.0215 c 0,1.39602 1.568384,2.3641 2.816406,1.74024 l 3.849612,-1.92578 c 1.26187,-0.63094 1.26189,-2.5976 0,-3.22852 l -3.849612,-1.92383 c -0.314219,-0.15713 -0.659041,-0.22348 -0.990234,-0.20312 z" />
    <path
       style="fill:#447821;fill-opacity:0.594801;stroke-width:2.00548;stroke-linecap:round"
       d="M 74.129842,182.37259 H 99.810211"
       id="path12" />
    <path
       id="path13"
       style="color:#000000;font-style:normal;font-variant:normal;font-weight:normal;font-stretch:normal;font-size:medium;line-height:normal;font-family:sans-serif;font-variant-ligatures:normal;font-variant-position:normal;font-variant-caps:normal;font-variant-numeric:normal;font-variant-alternates:normal;font-variant-east-asian:normal;font-feature-settings:normal;font-variation-settings:normal;text-indent:0;text-align:start;text-decoration-line:none;text-decoration-style:solid;text-decoration-color:#000000;letter-spacing:normal;word-spacing:normal;text-transform:none;writing-mode:lr-tb;direction:ltr;text-orientation:mixed;dominant-baseline:auto;baseline-shift:baseline;text-anchor:start;white-space:normal;shape-padding:0;shape-margin:0;inline-size:0;clip-rule:nonzero;display:inline;overflow:visible;visibility:visible;isolation:auto;mix-blend-mode:normal;color-interpolation:sRGB;color-interpolation-filters:linearRGB;solid-color:#000000;solid-opacity:1;vector-effect:none;fill:#447821;fill-opacity:1;fill-rule:nonzero;stroke:none;stroke-linecap:round;stroke-linejoin:miter;stroke-miterlimit:4;stroke-dasharray:none;stroke-dashoffset:0;stroke-opacity:1;-inkscape-stroke:none;color-rendering:auto;image-rendering:auto;shape-rendering:auto;text-rendering:auto;enable-background:accumulate;stop-color:#000000;stop-opacity:1"
       d="m 98.929092,179.45971 c -0.37091,0.0227 -0.697115,0.32738 -0.697115,0.74052 v 1.22422 H 73.504804 a 0.5731203,0.5731203 0 0 0 -0.572058,0.57567 0.5731203,0.5731203 0 0 0 0.572058,0.57206 h 24.727173 v 1.22525 c 0,0.5507 0.579563,0.90879 1.072286,0.66249 l 3.850407,-1.92495 c 0.44188,-0.22093 0.44188,-0.85137 0,-1.07228 l -3.850407,-1.92547 c -0.123181,-0.0616 -0.251534,-0.0851 -0.375171,-0.0775 z" />
  </g>
</svg>
