<?xml version="1.0" encoding="UTF-8" standalone="no"?>
<!-- Created with Inkscape (http://www.inkscape.org/) -->

<svg
   width="43.729591mm"
   height="43.729599mm"
   viewBox="0 0 43.729591 43.729599"
   version="1.1"
   id="svg1"
   xmlns="http://www.w3.org/2000/svg"
   xmlns:svg="http://www.w3.org/2000/svg">
  <defs
     id="defs1" />
  <g
     id="layer1"
     transform="translate(-37.551955,-206.82986)">
    <g
       id="g25"
       transform="translate(-0.0252852,0.23312378)">
      <rect
         style="fill:#c8c4b7;fill-opacity:1;stroke:none;stroke-width:1.2;stroke-linecap:round"
         id="rect16"
         width="31.137096"
         height="31.137096"
         x="37.677731"
         y="212.89299"
         ry="2.3030398" />
      <path
         style="fill:#f9f9f9;stroke-linecap:round;stroke-linejoin:round"
         d="m 42.053505,216.5318 h 22.385546 c 0.408283,0 0.736972,0.32869 0.736972,0.73697 v 22.38555 c 0,0.40828 -0.328689,0.73697 -0.736972,0.73697 H 42.053505 c -0.408283,0 -0.736973,-0.32869 -0.736973,-0.73697 v -22.38555 c 0,-0.40828 0.32869,-0.73697 0.736973,-0.73697 z"
         id="path18" />
      <path
         id="path19"
         style="fill:#333333;fill-opacity:1;stroke-linecap:round;stroke-linejoin:round"
         d="m 41.53271,215.66687 c -0.506178,0.16901 -0.912365,0.57582 -1.081104,1.08228 -0.09202,0.27619 -0.08456,0.7572 -0.08456,1.04945 v 21.32634 c 0,0.29225 -0.0074,0.77315 0.08447,1.04924 0.168664,0.50661 0.574816,0.9137 1.080984,1.08288 0.276094,0.0923 0.757144,0.0848 1.049395,0.0848 h 21.328414 c 0.292251,0 0.773174,0.007 1.049189,-0.0847 0.50657,-0.16908 0.91348,-0.57617 1.082519,-1.08281 0.09214,-0.27615 0.08469,-0.75718 0.08469,-1.04943 v -6.89673 a 0.52916665,0.52916665 0 0 0 -0.529167,-0.52917 h -0.841808 a 0.52916665,0.52916665 0 0 0 -0.529167,0.52917 v 6.68382 a 0.52916665,0.52916665 0 0 1 -0.529167,0.52917 h -20.9026 a 0.52916665,0.52916665 0 0 1 -0.529167,-0.52917 V 218.0115 a 0.52916665,0.52916665 0 0 1 0.529167,-0.52917 h 20.9026 a 0.52916665,0.52916665 0 0 1 0.529167,0.52917 v 7.43985 a 0.52916665,0.52916665 0 0 0 0.529167,0.52917 h 0.841808 a 0.52916665,0.52916665 0 0 0 0.529167,-0.52917 v -7.65275 c 0,-0.29225 0.0074,-0.77317 -0.08463,-1.0492 -0.168978,-0.50655 -0.575825,-0.91345 -1.082346,-1.0825 -0.276139,-0.0922 -0.75717,-0.0847 -1.049421,-0.0847 H 42.581896 c -0.292251,0 -0.773183,-0.007 -1.049187,0.0847 z" />
      <path
         id="path16"
         style="color:#000000;font-style:normal;font-variant:normal;font-weight:normal;font-stretch:normal;font-size:medium;line-height:normal;font-family:sans-serif;font-variant-ligatures:normal;font-variant-position:normal;font-variant-caps:normal;font-variant-numeric:normal;font-variant-alternates:normal;font-variant-east-asian:normal;font-feature-settings:normal;font-variation-settings:normal;text-indent:0;text-align:start;text-decoration-line:none;text-decoration-style:solid;text-decoration-color:#000000;letter-spacing:normal;word-spacing:normal;text-transform:none;writing-mode:lr-tb;direction:ltr;text-orientation:mixed;dominant-baseline:auto;baseline-shift:baseline;text-anchor:start;white-space:normal;shape-padding:0;shape-margin:0;inline-size:0;clip-rule:nonzero;display:inline;overflow:visible;visibility:visible;isolation:auto;mix-blend-mode:normal;color-interpolation:sRGB;color-interpolation-filters:linearRGB;solid-color:#000000;solid-opacity:1;vector-effect:none;fill:#447821;fill-opacity:1;fill-rule:nonzero;stroke:none;stroke-width:1.87137;stroke-linecap:round;stroke-linejoin:miter;stroke-miterlimit:4;stroke-dasharray:none;stroke-dashoffset:0;stroke-opacity:1;-inkscape-stroke:none;color-rendering:auto;image-rendering:auto;shape-rendering:auto;text-rendering:auto;enable-background:accumulate;stop-color:#000000;stop-opacity:1"
         d="m 71.374002,225.47526 v 2.29096 H 53.984928 c -0.593427,0.001 -1.073172,0.48387 -1.07053,1.07729 0.0011,0.59078 0.479746,1.06944 1.07053,1.07053 h 17.389074 v 2.2929 c 0,1.03056 1.084573,1.70067 2.006643,1.23976 l 7.20552,-3.60229 c 0.82692,-0.41344 0.82692,-1.59322 0,-2.00663 l -7.20552,-3.60326 c -1.190994,-0.59554 -2.006643,0.46503 -2.006643,1.24074 z" />
      <path
         id="path20"
         style="font-size:13.1096px;font-family:'Latin Modern Mono Light';-inkscape-font-specification:'Latin Modern Mono Light, ';stroke-width:2.07701"
         d="m 52.623145,220.5731 c -2.691821,0 -4.536158,1.89436 -4.536158,3.96307 0,1.5521 1.031703,3.07862 2.893364,3.7083 0.08509,-0.41872 0.258625,-0.80789 0.498161,-1.14929 -1.186563,-0.35505 -2.22002,-1.34639 -2.22002,-2.65875 0,-1.44561 1.34588,-2.81637 3.339848,-2.81637 3.165398,0 3.663942,2.56713 3.86333,3.56413 0.07482,0.29909 0.273869,0.37362 0.597896,0.37362 0.648015,0 0.648023,-0.42348 0.648023,-0.79737 v -3.38997 c 0,-0.2991 -6.8e-5,-0.79737 -0.523483,-0.79737 -0.423709,0 -0.5232,0.39878 -0.797367,1.39578 -1.320996,-1.12163 -2.641986,-1.39578 -3.763594,-1.39578 z m -3.888135,10.79211 c -0.648031,0 -0.648023,0.42351 -0.648023,0.79736 v 3.38998 c 0,0.29909 6.8e-5,0.79736 0.523483,0.79736 0.423717,0 0.523185,-0.32377 0.797367,-1.34565 1.296069,0.97204 2.816439,1.34565 4.411617,1.34565 2.816437,0 4.586283,-2.11813 4.586283,-4.28656 0,-0.0521 -0.0032,-0.10208 -0.0052,-0.15296 h -1.178223 c 0.0069,0.0899 0.01189,0.1819 0.01189,0.2775 0,1.44562 -1.196634,3.11558 -3.389974,3.11558 -0.772647,0 -2.093442,-0.12486 -3.165182,-0.8475 -1.171438,-0.74774 -1.295939,-1.91934 -1.320849,-2.44274 -0.02489,-0.29912 -0.04987,-0.64802 -0.623218,-0.64802 z" />
    </g>
    <rect
       style="fill:none;fill-opacity:1;stroke:none;stroke-width:0.0887988;stroke-linecap:round;stroke-linejoin:round;stroke-dasharray:none;paint-order:normal"
       id="rect25"
       width="43.729595"
       height="43.729595"
       x="37.55196"
       y="206.82986" />
  </g>
</svg>
