<?xml version="1.0" encoding="UTF-8" standalone="no"?>
<!-- Created with Inkscape (http://www.inkscape.org/) -->

<svg
   width="93.618286mm"
   height="35.638039mm"
   viewBox="0 0 93.61828 35.63804"
   version="1.1"
   id="svg1"
   inkscape:version="1.3 (0e150ed6c4, 2023-07-21)"
   sodipodi:docname="voice-to-letter.svg"
   xml:space="preserve"
   xmlns:inkscape="http://www.inkscape.org/namespaces/inkscape"
   xmlns:sodipodi="http://sodipodi.sourceforge.net/DTD/sodipodi-0.dtd"
   xmlns="http://www.w3.org/2000/svg"
   xmlns:svg="http://www.w3.org/2000/svg"><sodipodi:namedview
     id="namedview1"
     pagecolor="#ffffff"
     bordercolor="#666666"
     borderopacity="1.0"
     inkscape:showpageshadow="2"
     inkscape:pageopacity="0.0"
     inkscape:pagecheckerboard="0"
     inkscape:deskcolor="#d1d1d1"
     inkscape:document-units="mm"
     inkscape:zoom="1.4146745"
     inkscape:cx="42.766023"
     inkscape:cy="-34.636944"
     inkscape:window-width="1920"
     inkscape:window-height="1017"
     inkscape:window-x="1912"
     inkscape:window-y="-8"
     inkscape:window-maximized="1"
     inkscape:current-layer="g14"
     showguides="true"><sodipodi:guide
       position="169.01366,48.862898"
       orientation="0,-1"
       id="guide12"
       inkscape:locked="false" /><sodipodi:guide
       position="169.6749,-16.203401"
       orientation="0,-1"
       id="guide13"
       inkscape:locked="false" /></sodipodi:namedview><defs
     id="defs1"><inkscape:path-effect
       effect="fillet_chamfer"
       id="path-effect11"
       is_visible="true"
       lpeversion="1"
       nodesatellites_param="F,0,1,1,0,3.2022739,0,1 @ F,0,0,1,0,0,0,1 @ F,0,0,1,0,0,0,1 @ F,0,1,1,0,3.2022739,0,1"
       radius="0"
       unit="px"
       method="auto"
       mode="F"
       chamfer_steps="1"
       flexible="false"
       use_knot_distance="true"
       apply_no_radius="true"
       apply_with_radius="true"
       only_selected="true"
       hide_knots="false" /><inkscape:path-effect
       effect="fillet_chamfer"
       id="path-effect10"
       is_visible="true"
       lpeversion="1"
       nodesatellites_param="F,0,0,1,0,0,0,1 @ F,0,0,1,0,0,0,1 @ F,0,0,1,0,0,0,1 @ F,0,0,1,0,0,0,1"
       radius="0"
       unit="px"
       method="auto"
       mode="F"
       chamfer_steps="1"
       flexible="false"
       use_knot_distance="true"
       apply_no_radius="true"
       apply_with_radius="true"
       only_selected="false"
       hide_knots="false" /><inkscape:path-effect
       effect="fillet_chamfer"
       id="path-effect9"
       is_visible="true"
       lpeversion="1"
       nodesatellites_param="F,0,0,1,0,0.26458333,0,1 @ F,0,1,1,0,5.3995756,0,1 @ F,0,1,1,0,5.3995756,0,1 @ F,0,0,1,0,0.26458333,0,1"
       radius="0"
       unit="px"
       method="auto"
       mode="F"
       chamfer_steps="1"
       flexible="false"
       use_knot_distance="true"
       apply_no_radius="true"
       apply_with_radius="true"
       only_selected="true"
       hide_knots="false" /><marker
       style="overflow:visible"
       id="RoundedArrow"
       refX="0"
       refY="0"
       orient="auto-start-reverse"
       inkscape:stockid="Rounded arrow"
       markerWidth="1"
       markerHeight="1"
       viewBox="0 0 1 1"
       inkscape:isstock="true"
       inkscape:collect="always"
       preserveAspectRatio="xMidYMid"><path
         transform="scale(0.7)"
         d="m -0.21114562,-4.1055728 6.42229122,3.21114561 a 1,1 90 0 1 0,1.78885438 L -0.21114562,4.1055728 A 1.236068,1.236068 31.717474 0 1 -2,3 v -6 a 1.236068,1.236068 148.28253 0 1 1.78885438,-1.1055728 z"
         style="fill:context-stroke;fill-rule:evenodd;stroke:none"
         id="path8" /></marker><inkscape:path-effect
       effect="spiro"
       id="path-effect8"
       is_visible="true"
       lpeversion="1" /><inkscape:path-effect
       effect="simplify"
       id="path-effect7"
       is_visible="true"
       lpeversion="1.3"
       threshold="64.5161"
       steps="1"
       smooth_angles="360"
       helper_size="0"
       simplify_individual_paths="false"
       simplify_just_coalesce="false" /><inkscape:path-effect
       effect="spiro"
       id="path-effect6"
       is_visible="true"
       lpeversion="1" /><inkscape:path-effect
       effect="simplify"
       id="path-effect5"
       is_visible="true"
       lpeversion="1.3"
       threshold="64.5161"
       steps="1"
       smooth_angles="360"
       helper_size="0"
       simplify_individual_paths="false"
       simplify_just_coalesce="false" /></defs><g
     inkscape:label="Layer 1"
     inkscape:groupmode="layer"
     id="layer1"
     transform="translate(-35.87495,-81.967407)"><rect
       style="fill:#f3f1ee;fill-opacity:1;stroke-width:0.0999998;paint-order:fill markers stroke"
       id="rect1"
       width="35.638039"
       height="35.638039"
       x="35.87495"
       y="81.967407"
       ry="1.5159889"
       rx="1.5159889" /><rect
       style="fill:#fbfbfb;fill-opacity:1;stroke:#214478;stroke-width:0.799998;stroke-dasharray:none;stroke-opacity:1;paint-order:fill markers stroke"
       id="rect2"
       width="27.802807"
       height="28.104799"
       x="39.792568"
       y="85.734024"
       ry="0.84395367" /><rect
       style="fill:#f3f1ee;fill-opacity:1;stroke-width:0.0999998;paint-order:fill markers stroke"
       id="rect3"
       width="35.638039"
       height="35.638039"
       x="93.855194"
       y="81.967407"
       ry="1.5159889"
       rx="1.5159889" /><rect
       style="fill:#fbfbfb;fill-opacity:1;stroke:#214478;stroke-width:0.799998;stroke-dasharray:none;stroke-opacity:1;paint-order:fill markers stroke"
       id="rect4"
       width="27.802807"
       height="28.104799"
       x="97.772827"
       y="85.734024"
       ry="0.84395367" /><text
       xml:space="preserve"
       style="font-style:normal;font-variant:normal;font-weight:normal;font-stretch:normal;font-size:20.946px;line-height:1.25;font-family:'Times New Roman';-inkscape-font-specification:'Times New Roman, ';fill:#ff0000;stroke-width:0.264583"
       x="105.08769"
       y="106.51359"
       id="text4"><tspan
         sodipodi:role="line"
         id="tspan4"
         style="font-style:normal;font-variant:normal;font-weight:normal;font-stretch:normal;font-family:'Times New Roman';-inkscape-font-specification:'Times New Roman, ';fill:#ff0000;stroke-width:0.264583"
         x="105.08769"
         y="106.51359">B</tspan></text><path
       style="fill:#2ca02c;stroke:#2ca02c;stroke-width:2.77362;stroke-linecap:butt;stroke-linejoin:miter;stroke-dasharray:none;stroke-opacity:1;marker-end:url(#RoundedArrow)"
       d="m 69.69499,79.084637 h 65.59529"
       id="path6"
       inkscape:path-effect="#path-effect7;#path-effect8"
       inkscape:original-d="m 69.69499,79.084637 h 65.59529"
       transform="matrix(0.49213825,0,0,0.49213825,30.776518,60.865849)" /><g
       id="g14"
       transform="matrix(0.34618243,0,0,0.34618243,134.24464,66.259016)"
       style="stroke-width:2.88865"><path
         style="color:#000000;fill:#6c5d53;stroke-width:2.88865;stroke-linecap:round;-inkscape-stroke:none;paint-order:fill markers stroke;fill-opacity:1"
         d="m -230.83542,91.351487 a 2.1191567,2.1921557 0 0 0 -2.96764,0.4253 2.1191567,2.1921557 0 0 0 0.41114,3.071297 c 0.60801,0.475967 0.96428,1.213586 0.96713,2.002336 0.003,0.788751 -0.34879,1.528815 -0.95334,2.009473 a 2.1191567,2.1921557 0 0 0 -0.38906,3.074147 2.1191567,2.1921557 0 0 0 2.97178,0.40247 c 1.64993,-1.31181 2.61672,-3.350583 2.60893,-5.503218 -0.008,-2.152629 -0.98957,-4.182807 -2.64894,-5.481805 z"
         id="path13" /><path
         id="rect5"
         style="fill:#aa4400;stroke-width:0.866592;paint-order:fill markers stroke"
         d="m -250.03212,86.824837 15.99664,-12.915269 a 1.8614681,1.9255906 0 0 1 3.00678,1.517974 v 42.842938 a 1.8614682,1.9255906 0 0 1 -3.00678,1.51798 l -15.99664,-12.91527 a 0.3829558,0.39614757 0 0 1 -0.14734,-0.31229 V 87.137125 a 0.38295582,0.39614758 0 0 1 0.14734,-0.312288 z"
         sodipodi:nodetypes="ccccc" /><path
         id="rect9"
         d="m -258.9118,87.137123 h 5.82584 v 19.424367 h -5.82584 a 2.2620363,2.3399571 0 0 1 -2.26204,-2.33995 V 89.47708 a 2.2620363,2.3399571 0 0 1 2.26204,-2.339957 z"
         style="fill:#aa4400;stroke-width:0.866592;paint-order:fill markers stroke" /><path
         style="color:#000000;fill:#6c5d53;stroke-width:2.88865;stroke-linecap:round;-inkscape-stroke:none;paint-order:fill markers stroke"
         d="m -223.72604,79.614339 a 2.1191531,2.1921521 0 0 0 -1.47762,0.690757 2.1191531,2.1921521 0 0 0 0.0924,3.098412 c 3.58144,3.481964 5.60868,8.338394 5.60279,13.422653 -0.006,5.084249 -2.04501,9.936749 -5.63452,13.409799 a 2.1191531,2.1921521 0 0 0 -0.0993,3.09841 2.1191531,2.1921521 0 0 0 2.99524,0.10419 c 4.44359,-4.29942 6.96962,-10.31271 6.97692,-16.606692 0.007,-6.293986 -2.5047,-12.313372 -6.9383,-16.623821 a 2.1191531,2.1921521 0 0 0 -1.51761,-0.593708 z"
         id="path11" /><path
         style="color:#000000;fill:#6c5d53;stroke-width:2.88865;stroke-linecap:round;-inkscape-stroke:none;paint-order:fill markers stroke"
         d="m -217.43205,70.891401 a 2.1191531,2.1921521 0 0 0 -0.0276,3.09984 c 12.0885,12.740938 12.07925,32.984589 -0.0207,45.714079 a 2.1191531,2.1921521 0 0 0 0.0249,3.09984 2.1191531,2.1921521 0 0 0 2.99661,-0.0257 c 13.68055,-14.39232 13.69109,-37.454221 0.0234,-51.859525 a 2.1191531,2.1921521 0 0 0 -2.99661,-0.02854 z"
         id="path12" /></g></g></svg>
